ISO-10303-21;
HEADER;
/* Generated by software containing ST-Developer
 * from STEP Tools, Inc. (www.steptools.com) 
 */

FILE_DESCRIPTION(
/* description */ (''),
/* implementation_level */ '2;1');

FILE_NAME(
/* name */ 'Cansat_D1.step',
/* time_stamp */ '2026-09-09T22:20:21+05:30',
/* author */ (''),
/* organization */ (''),
/* preprocessor_version */ 'ST-DEVELOPER v20.2',
/* originating_system */ 'Autodesk Translation Framework v15.15.0.0',
/* authorisation */ '');

FILE_SCHEMA (('AUTOMOTIVE_DESIGN { 1 0 10303 214 3 1 1 }'));
ENDSEC;

DATA;
#10=MECHANICAL_DESIGN_GEOMETRIC_PRESENTATION_REPRESENTATION('',(#13),#1962);
#11=SHAPE_REPRESENTATION_RELATIONSHIP('SRR','None',#1969,#12);
#12=ADVANCED_BREP_SHAPE_REPRESENTATION('',(#14),#1961);
#13=STYLED_ITEM('',(#1978),#14);
#14=MANIFOLD_SOLID_BREP('Body1',#1223);
#15=FACE_BOUND('',#146,.T.);
#16=FACE_BOUND('',#147,.T.);
#17=FACE_BOUND('',#153,.T.);
#18=FACE_BOUND('',#154,.T.);
#19=FACE_BOUND('',#155,.T.);
#20=FACE_BOUND('',#156,.T.);
#21=FACE_BOUND('',#157,.T.);
#22=FACE_BOUND('',#159,.T.);
#23=FACE_BOUND('',#163,.T.);
#24=FACE_BOUND('',#164,.T.);
#25=FACE_BOUND('',#166,.T.);
#26=FACE_BOUND('',#168,.T.);
#27=FACE_BOUND('',#169,.T.);
#28=FACE_BOUND('',#171,.T.);
#29=FACE_BOUND('',#178,.T.);
#30=FACE_BOUND('',#182,.T.);
#31=FACE_BOUND('',#203,.T.);
#32=FACE_BOUND('',#204,.T.);
#33=PLANE('',#1243);
#34=PLANE('',#1244);
#35=PLANE('',#1245);
#36=PLANE('',#1246);
#37=PLANE('',#1247);
#38=PLANE('',#1248);
#39=PLANE('',#1249);
#40=PLANE('',#1250);
#41=PLANE('',#1251);
#42=PLANE('',#1255);
#43=PLANE('',#1257);
#44=PLANE('',#1260);
#45=PLANE('',#1263);
#46=PLANE('',#1266);
#47=PLANE('',#1267);
#48=PLANE('',#1268);
#49=PLANE('',#1270);
#50=PLANE('',#1271);
#51=PLANE('',#1273);
#52=PLANE('',#1276);
#53=PLANE('',#1277);
#54=PLANE('',#1282);
#55=PLANE('',#1283);
#56=PLANE('',#1284);
#57=PLANE('',#1285);
#58=PLANE('',#1286);
#59=PLANE('',#1287);
#60=PLANE('',#1288);
#61=PLANE('',#1289);
#62=PLANE('',#1290);
#63=PLANE('',#1291);
#64=PLANE('',#1292);
#65=PLANE('',#1293);
#66=PLANE('',#1294);
#67=PLANE('',#1295);
#68=PLANE('',#1296);
#69=PLANE('',#1297);
#70=PLANE('',#1299);
#71=PLANE('',#1303);
#72=PLANE('',#1306);
#73=PLANE('',#1307);
#74=PLANE('',#1308);
#75=PLANE('',#1309);
#76=PLANE('',#1310);
#77=PLANE('',#1311);
#78=PLANE('',#1312);
#79=FACE_OUTER_BOUND('',#135,.T.);
#80=FACE_OUTER_BOUND('',#136,.T.);
#81=FACE_OUTER_BOUND('',#137,.T.);
#82=FACE_OUTER_BOUND('',#138,.T.);
#83=FACE_OUTER_BOUND('',#139,.T.);
#84=FACE_OUTER_BOUND('',#140,.T.);
#85=FACE_OUTER_BOUND('',#141,.T.);
#86=FACE_OUTER_BOUND('',#142,.T.);
#87=FACE_OUTER_BOUND('',#143,.T.);
#88=FACE_OUTER_BOUND('',#144,.T.);
#89=FACE_OUTER_BOUND('',#145,.T.);
#90=FACE_OUTER_BOUND('',#148,.T.);
#91=FACE_OUTER_BOUND('',#149,.T.);
#92=FACE_OUTER_BOUND('',#150,.T.);
#93=FACE_OUTER_BOUND('',#151,.T.);
#94=FACE_OUTER_BOUND('',#152,.T.);
#95=FACE_OUTER_BOUND('',#158,.T.);
#96=FACE_OUTER_BOUND('',#160,.T.);
#97=FACE_OUTER_BOUND('',#161,.T.);
#98=FACE_OUTER_BOUND('',#162,.T.);
#99=FACE_OUTER_BOUND('',#165,.T.);
#100=FACE_OUTER_BOUND('',#167,.T.);
#101=FACE_OUTER_BOUND('',#170,.T.);
#102=FACE_OUTER_BOUND('',#172,.T.);
#103=FACE_OUTER_BOUND('',#173,.T.);
#104=FACE_OUTER_BOUND('',#174,.T.);
#105=FACE_OUTER_BOUND('',#175,.T.);
#106=FACE_OUTER_BOUND('',#176,.T.);
#107=FACE_OUTER_BOUND('',#177,.T.);
#108=FACE_OUTER_BOUND('',#179,.T.);
#109=FACE_OUTER_BOUND('',#180,.T.);
#110=FACE_OUTER_BOUND('',#181,.T.);
#111=FACE_OUTER_BOUND('',#183,.T.);
#112=FACE_OUTER_BOUND('',#184,.T.);
#113=FACE_OUTER_BOUND('',#185,.T.);
#114=FACE_OUTER_BOUND('',#186,.T.);
#115=FACE_OUTER_BOUND('',#187,.T.);
#116=FACE_OUTER_BOUND('',#188,.T.);
#117=FACE_OUTER_BOUND('',#189,.T.);
#118=FACE_OUTER_BOUND('',#190,.T.);
#119=FACE_OUTER_BOUND('',#191,.T.);
#120=FACE_OUTER_BOUND('',#192,.T.);
#121=FACE_OUTER_BOUND('',#193,.T.);
#122=FACE_OUTER_BOUND('',#194,.T.);
#123=FACE_OUTER_BOUND('',#195,.T.);
#124=FACE_OUTER_BOUND('',#196,.T.);
#125=FACE_OUTER_BOUND('',#197,.T.);
#126=FACE_OUTER_BOUND('',#198,.T.);
#127=FACE_OUTER_BOUND('',#199,.T.);
#128=FACE_OUTER_BOUND('',#200,.T.);
#129=FACE_OUTER_BOUND('',#201,.T.);
#130=FACE_OUTER_BOUND('',#202,.T.);
#131=FACE_OUTER_BOUND('',#205,.T.);
#132=FACE_OUTER_BOUND('',#206,.T.);
#133=FACE_OUTER_BOUND('',#207,.T.);
#134=FACE_OUTER_BOUND('',#208,.T.);
#135=EDGE_LOOP('',(#815,#816,#817,#818));
#136=EDGE_LOOP('',(#819,#820,#821,#822));
#137=EDGE_LOOP('',(#823,#824,#825,#826));
#138=EDGE_LOOP('',(#827,#828,#829,#830,#831,#832,#833,#834));
#139=EDGE_LOOP('',(#835,#836,#837,#838));
#140=EDGE_LOOP('',(#839,#840,#841,#842,#843,#844,#845,#846));
#141=EDGE_LOOP('',(#847,#848,#849,#850));
#142=EDGE_LOOP('',(#851,#852,#853,#854,#855,#856,#857,#858,#859));
#143=EDGE_LOOP('',(#860,#861,#862,#863,#864,#865,#866,#867));
#144=EDGE_LOOP('',(#868,#869,#870,#871));
#145=EDGE_LOOP('',(#872,#873,#874,#875));
#146=EDGE_LOOP('',(#876));
#147=EDGE_LOOP('',(#877));
#148=EDGE_LOOP('',(#878,#879,#880,#881));
#149=EDGE_LOOP('',(#882,#883,#884,#885));
#150=EDGE_LOOP('',(#886,#887,#888,#889));
#151=EDGE_LOOP('',(#890,#891,#892,#893));
#152=EDGE_LOOP('',(#894,#895,#896,#897));
#153=EDGE_LOOP('',(#898));
#154=EDGE_LOOP('',(#899));
#155=EDGE_LOOP('',(#900,#901,#902,#903));
#156=EDGE_LOOP('',(#904,#905,#906,#907));
#157=EDGE_LOOP('',(#908,#909,#910,#911,#912,#913,#914,#915,#916));
#158=EDGE_LOOP('',(#917,#918,#919,#920,#921,#922,#923,#924,#925,#926,#927,
#928,#929,#930));
#159=EDGE_LOOP('',(#931,#932,#933,#934));
#160=EDGE_LOOP('',(#935,#936,#937,#938));
#161=EDGE_LOOP('',(#939,#940,#941,#942));
#162=EDGE_LOOP('',(#943,#944,#945,#946));
#163=EDGE_LOOP('',(#947));
#164=EDGE_LOOP('',(#948,#949,#950,#951,#952,#953,#954,#955));
#165=EDGE_LOOP('',(#956,#957,#958,#959));
#166=EDGE_LOOP('',(#960,#961,#962,#963));
#167=EDGE_LOOP('',(#964,#965,#966,#967));
#168=EDGE_LOOP('',(#968));
#169=EDGE_LOOP('',(#969,#970,#971,#972));
#170=EDGE_LOOP('',(#973,#974,#975,#976,#977,#978,#979,#980,#981,#982,#983,
#984,#985,#986));
#171=EDGE_LOOP('',(#987,#988,#989,#990));
#172=EDGE_LOOP('',(#991,#992,#993,#994));
#173=EDGE_LOOP('',(#995,#996,#997,#998));
#174=EDGE_LOOP('',(#999,#1000,#1001,#1002));
#175=EDGE_LOOP('',(#1003,#1004,#1005,#1006));
#176=EDGE_LOOP('',(#1007,#1008,#1009,#1010));
#177=EDGE_LOOP('',(#1011,#1012,#1013,#1014));
#178=EDGE_LOOP('',(#1015));
#179=EDGE_LOOP('',(#1016,#1017,#1018,#1019));
#180=EDGE_LOOP('',(#1020,#1021,#1022,#1023));
#181=EDGE_LOOP('',(#1024,#1025,#1026,#1027));
#182=EDGE_LOOP('',(#1028));
#183=EDGE_LOOP('',(#1029,#1030,#1031,#1032));
#184=EDGE_LOOP('',(#1033,#1034,#1035,#1036));
#185=EDGE_LOOP('',(#1037,#1038,#1039,#1040));
#186=EDGE_LOOP('',(#1041,#1042,#1043,#1044));
#187=EDGE_LOOP('',(#1045,#1046,#1047,#1048,#1049,#1050));
#188=EDGE_LOOP('',(#1051,#1052,#1053,#1054,#1055,#1056,#1057,#1058,#1059,
#1060,#1061,#1062,#1063,#1064,#1065,#1066,#1067,#1068,#1069));
#189=EDGE_LOOP('',(#1070,#1071,#1072,#1073));
#190=EDGE_LOOP('',(#1074,#1075,#1076,#1077));
#191=EDGE_LOOP('',(#1078,#1079,#1080,#1081,#1082));
#192=EDGE_LOOP('',(#1083,#1084,#1085,#1086));
#193=EDGE_LOOP('',(#1087,#1088,#1089,#1090));
#194=EDGE_LOOP('',(#1091,#1092,#1093,#1094));
#195=EDGE_LOOP('',(#1095,#1096,#1097,#1098));
#196=EDGE_LOOP('',(#1099,#1100,#1101,#1102));
#197=EDGE_LOOP('',(#1103,#1104,#1105,#1106));
#198=EDGE_LOOP('',(#1107,#1108,#1109,#1110));
#199=EDGE_LOOP('',(#1111,#1112,#1113,#1114));
#200=EDGE_LOOP('',(#1115,#1116,#1117,#1118));
#201=EDGE_LOOP('',(#1119,#1120,#1121,#1122));
#202=EDGE_LOOP('',(#1123,#1124,#1125,#1126));
#203=EDGE_LOOP('',(#1127,#1128,#1129,#1130,#1131,#1132));
#204=EDGE_LOOP('',(#1133,#1134,#1135,#1136));
#205=EDGE_LOOP('',(#1137,#1138,#1139,#1140));
#206=EDGE_LOOP('',(#1141,#1142,#1143,#1144));
#207=EDGE_LOOP('',(#1145,#1146,#1147,#1148,#1149,#1150,#1151,#1152));
#208=EDGE_LOOP('',(#1153,#1154,#1155,#1156));
#209=LINE('',#1623,#360);
#210=LINE('',#1629,#361);
#211=LINE('',#1634,#362);
#212=LINE('',#1636,#363);
#213=LINE('',#1638,#364);
#214=LINE('',#1639,#365);
#215=LINE('',#1642,#366);
#216=LINE('',#1644,#367);
#217=LINE('',#1646,#368);
#218=LINE('',#1648,#369);
#219=LINE('',#1650,#370);
#220=LINE('',#1652,#371);
#221=LINE('',#1653,#372);
#222=LINE('',#1656,#373);
#223=LINE('',#1658,#374);
#224=LINE('',#1659,#375);
#225=LINE('',#1662,#376);
#226=LINE('',#1664,#377);
#227=LINE('',#1666,#378);
#228=LINE('',#1668,#379);
#229=LINE('',#1669,#380);
#230=LINE('',#1670,#381);
#231=LINE('',#1672,#382);
#232=LINE('',#1675,#383);
#233=LINE('',#1677,#384);
#234=LINE('',#1679,#385);
#235=LINE('',#1681,#386);
#236=LINE('',#1683,#387);
#237=LINE('',#1684,#388);
#238=LINE('',#1687,#389);
#239=LINE('',#1689,#390);
#240=LINE('',#1691,#391);
#241=LINE('',#1693,#392);
#242=LINE('',#1695,#393);
#243=LINE('',#1696,#394);
#244=LINE('',#1699,#395);
#245=LINE('',#1700,#396);
#246=LINE('',#1703,#397);
#247=LINE('',#1704,#398);
#248=LINE('',#1710,#399);
#249=LINE('',#1713,#400);
#250=LINE('',#1716,#401);
#251=LINE('',#1719,#402);
#252=LINE('',#1722,#403);
#253=LINE('',#1723,#404);
#254=LINE('',#1727,#405);
#255=LINE('',#1731,#406);
#256=LINE('',#1733,#407);
#257=LINE('',#1735,#408);
#258=LINE('',#1736,#409);
#259=LINE('',#1739,#410);
#260=LINE('',#1741,#411);
#261=LINE('',#1743,#412);
#262=LINE('',#1744,#413);
#263=LINE('',#1746,#414);
#264=LINE('',#1748,#415);
#265=LINE('',#1752,#416);
#266=LINE('',#1755,#417);
#267=LINE('',#1759,#418);
#268=LINE('',#1761,#419);
#269=LINE('',#1763,#420);
#270=LINE('',#1765,#421);
#271=LINE('',#1767,#422);
#272=LINE('',#1769,#423);
#273=LINE('',#1771,#424);
#274=LINE('',#1775,#425);
#275=LINE('',#1779,#426);
#276=LINE('',#1781,#427);
#277=LINE('',#1783,#428);
#278=LINE('',#1784,#429);
#279=LINE('',#1787,#430);
#280=LINE('',#1789,#431);
#281=LINE('',#1791,#432);
#282=LINE('',#1792,#433);
#283=LINE('',#1794,#434);
#284=LINE('',#1795,#435);
#285=LINE('',#1797,#436);
#286=LINE('',#1801,#437);
#287=LINE('',#1802,#438);
#288=LINE('',#1803,#439);
#289=LINE('',#1806,#440);
#290=LINE('',#1808,#441);
#291=LINE('',#1810,#442);
#292=LINE('',#1812,#443);
#293=LINE('',#1814,#444);
#294=LINE('',#1815,#445);
#295=LINE('',#1818,#446);
#296=LINE('',#1819,#447);
#297=LINE('',#1821,#448);
#298=LINE('',#1823,#449);
#299=LINE('',#1824,#450);
#300=LINE('',#1827,#451);
#301=LINE('',#1828,#452);
#302=LINE('',#1832,#453);
#303=LINE('',#1834,#454);
#304=LINE('',#1835,#455);
#305=LINE('',#1838,#456);
#306=LINE('',#1839,#457);
#307=LINE('',#1841,#458);
#308=LINE('',#1843,#459);
#309=LINE('',#1847,#460);
#310=LINE('',#1851,#461);
#311=LINE('',#1852,#462);
#312=LINE('',#1854,#463);
#313=LINE('',#1855,#464);
#314=LINE('',#1858,#465);
#315=LINE('',#1860,#466);
#316=LINE('',#1862,#467);
#317=LINE('',#1863,#468);
#318=LINE('',#1866,#469);
#319=LINE('',#1868,#470);
#320=LINE('',#1869,#471);
#321=LINE('',#1872,#472);
#322=LINE('',#1873,#473);
#323=LINE('',#1876,#474);
#324=LINE('',#1881,#475);
#325=LINE('',#1884,#476);
#326=LINE('',#1885,#477);
#327=LINE('',#1887,#478);
#328=LINE('',#1889,#479);
#329=LINE('',#1892,#480);
#330=LINE('',#1894,#481);
#331=LINE('',#1897,#482);
#332=LINE('',#1898,#483);
#333=LINE('',#1900,#484);
#334=LINE('',#1901,#485);
#335=LINE('',#1904,#486);
#336=LINE('',#1906,#487);
#337=LINE('',#1907,#488);
#338=LINE('',#1909,#489);
#339=LINE('',#1911,#490);
#340=LINE('',#1913,#491);
#341=LINE('',#1914,#492);
#342=LINE('',#1916,#493);
#343=LINE('',#1918,#494);
#344=LINE('',#1919,#495);
#345=LINE('',#1920,#496);
#346=LINE('',#1922,#497);
#347=LINE('',#1924,#498);
#348=LINE('',#1928,#499);
#349=LINE('',#1929,#500);
#350=LINE('',#1931,#501);
#351=LINE('',#1933,#502);
#352=LINE('',#1934,#503);
#353=LINE('',#1937,#504);
#354=LINE('',#1940,#505);
#355=LINE('',#1943,#506);
#356=LINE('',#1945,#507);
#357=LINE('',#1948,#508);
#358=LINE('',#1953,#509);
#359=LINE('',#1954,#510);
#360=VECTOR('',#1319,2.55);
#361=VECTOR('',#1326,2.55);
#362=VECTOR('',#1331,10.);
#363=VECTOR('',#1332,10.);
#364=VECTOR('',#1333,10.);
#365=VECTOR('',#1334,10.);
#366=VECTOR('',#1337,10.);
#367=VECTOR('',#1338,10.);
#368=VECTOR('',#1339,10.);
#369=VECTOR('',#1340,10.);
#370=VECTOR('',#1341,10.);
#371=VECTOR('',#1342,10.);
#372=VECTOR('',#1343,10.);
#373=VECTOR('',#1346,10.);
#374=VECTOR('',#1347,10.);
#375=VECTOR('',#1348,10.);
#376=VECTOR('',#1351,10.);
#377=VECTOR('',#1352,10.);
#378=VECTOR('',#1353,10.);
#379=VECTOR('',#1354,10.);
#380=VECTOR('',#1355,10.);
#381=VECTOR('',#1356,10.);
#382=VECTOR('',#1359,10.);
#383=VECTOR('',#1362,10.);
#384=VECTOR('',#1363,10.);
#385=VECTOR('',#1364,10.);
#386=VECTOR('',#1365,10.);
#387=VECTOR('',#1366,10.);
#388=VECTOR('',#1367,10.);
#389=VECTOR('',#1370,10.);
#390=VECTOR('',#1371,10.);
#391=VECTOR('',#1372,10.);
#392=VECTOR('',#1373,10.);
#393=VECTOR('',#1374,10.);
#394=VECTOR('',#1375,10.);
#395=VECTOR('',#1378,10.);
#396=VECTOR('',#1379,10.);
#397=VECTOR('',#1382,10.);
#398=VECTOR('',#1383,10.);
#399=VECTOR('',#1388,10.);
#400=VECTOR('',#1391,10.);
#401=VECTOR('',#1394,10.);
#402=VECTOR('',#1397,10.);
#403=VECTOR('',#1400,10.);
#404=VECTOR('',#1401,10.);
#405=VECTOR('',#1406,10.);
#406=VECTOR('',#1409,10.);
#407=VECTOR('',#1410,10.);
#408=VECTOR('',#1411,10.);
#409=VECTOR('',#1412,10.);
#410=VECTOR('',#1413,10.);
#411=VECTOR('',#1414,10.);
#412=VECTOR('',#1415,10.);
#413=VECTOR('',#1416,10.);
#414=VECTOR('',#1417,10.);
#415=VECTOR('',#1418,10.);
#416=VECTOR('',#1421,10.);
#417=VECTOR('',#1424,10.);
#418=VECTOR('',#1427,10.);
#419=VECTOR('',#1428,10.);
#420=VECTOR('',#1429,10.);
#421=VECTOR('',#1430,10.);
#422=VECTOR('',#1431,10.);
#423=VECTOR('',#1432,10.);
#424=VECTOR('',#1433,10.);
#425=VECTOR('',#1436,10.);
#426=VECTOR('',#1439,10.);
#427=VECTOR('',#1440,10.);
#428=VECTOR('',#1441,10.);
#429=VECTOR('',#1442,10.);
#430=VECTOR('',#1443,10.);
#431=VECTOR('',#1444,10.);
#432=VECTOR('',#1445,10.);
#433=VECTOR('',#1446,10.);
#434=VECTOR('',#1449,10.);
#435=VECTOR('',#1450,10.);
#436=VECTOR('',#1453,10.);
#437=VECTOR('',#1456,10.);
#438=VECTOR('',#1457,10.);
#439=VECTOR('',#1458,10.);
#440=VECTOR('',#1461,10.);
#441=VECTOR('',#1462,10.);
#442=VECTOR('',#1463,10.);
#443=VECTOR('',#1464,10.);
#444=VECTOR('',#1465,10.);
#445=VECTOR('',#1466,10.);
#446=VECTOR('',#1469,10.);
#447=VECTOR('',#1470,10.);
#448=VECTOR('',#1471,10.);
#449=VECTOR('',#1472,10.);
#450=VECTOR('',#1473,10.);
#451=VECTOR('',#1476,10.);
#452=VECTOR('',#1477,10.);
#453=VECTOR('',#1480,10.);
#454=VECTOR('',#1481,10.);
#455=VECTOR('',#1482,10.);
#456=VECTOR('',#1485,10.);
#457=VECTOR('',#1486,10.);
#458=VECTOR('',#1487,10.);
#459=VECTOR('',#1488,10.);
#460=VECTOR('',#1491,10.);
#461=VECTOR('',#1494,10.);
#462=VECTOR('',#1495,10.);
#463=VECTOR('',#1496,10.);
#464=VECTOR('',#1497,10.);
#465=VECTOR('',#1498,10.);
#466=VECTOR('',#1499,10.);
#467=VECTOR('',#1500,10.);
#468=VECTOR('',#1501,10.);
#469=VECTOR('',#1504,10.);
#470=VECTOR('',#1505,10.);
#471=VECTOR('',#1506,10.);
#472=VECTOR('',#1509,10.);
#473=VECTOR('',#1510,10.);
#474=VECTOR('',#1513,6.00000000000001);
#475=VECTOR('',#1520,6.00000000000001);
#476=VECTOR('',#1523,10.);
#477=VECTOR('',#1524,10.);
#478=VECTOR('',#1527,10.);
#479=VECTOR('',#1530,10.);
#480=VECTOR('',#1535,10.);
#481=VECTOR('',#1538,10.);
#482=VECTOR('',#1541,10.);
#483=VECTOR('',#1542,10.);
#484=VECTOR('',#1545,10.);
#485=VECTOR('',#1546,10.);
#486=VECTOR('',#1549,10.);
#487=VECTOR('',#1550,10.);
#488=VECTOR('',#1551,10.);
#489=VECTOR('',#1554,10.);
#490=VECTOR('',#1557,10.);
#491=VECTOR('',#1558,10.);
#492=VECTOR('',#1559,10.);
#493=VECTOR('',#1560,10.);
#494=VECTOR('',#1561,10.);
#495=VECTOR('',#1562,10.);
#496=VECTOR('',#1563,10.);
#497=VECTOR('',#1566,10.);
#498=VECTOR('',#1569,10.);
#499=VECTOR('',#1574,10.);
#500=VECTOR('',#1575,10.);
#501=VECTOR('',#1578,10.);
#502=VECTOR('',#1581,10.);
#503=VECTOR('',#1582,10.);
#504=VECTOR('',#1587,10.);
#505=VECTOR('',#1590,10.);
#506=VECTOR('',#1593,10.);
#507=VECTOR('',#1596,10.);
#508=VECTOR('',#1599,10.);
#509=VECTOR('',#1608,10.);
#510=VECTOR('',#1609,10.);
#511=CIRCLE('',#1238,2.55);
#512=CIRCLE('',#1239,2.55);
#513=CIRCLE('',#1241,2.55);
#514=CIRCLE('',#1242,2.55);
#515=CIRCLE('',#1253,8.);
#516=CIRCLE('',#1254,8.);
#517=CIRCLE('',#1256,8.);
#518=CIRCLE('',#1259,8.);
#519=CIRCLE('',#1261,22.5);
#520=CIRCLE('',#1262,22.5);
#521=CIRCLE('',#1264,22.5);
#522=CIRCLE('',#1265,22.5);
#523=CIRCLE('',#1269,6.00000000000001);
#524=CIRCLE('',#1272,6.00000000000001);
#525=CIRCLE('',#1274,22.5);
#526=CIRCLE('',#1275,22.5);
#527=CIRCLE('',#1279,6.00000000000001);
#528=CIRCLE('',#1281,6.00000000000001);
#529=CIRCLE('',#1302,22.5);
#530=CIRCLE('',#1305,22.5);
#531=VERTEX_POINT('',#1620);
#532=VERTEX_POINT('',#1622);
#533=VERTEX_POINT('',#1626);
#534=VERTEX_POINT('',#1628);
#535=VERTEX_POINT('',#1632);
#536=VERTEX_POINT('',#1633);
#537=VERTEX_POINT('',#1635);
#538=VERTEX_POINT('',#1637);
#539=VERTEX_POINT('',#1641);
#540=VERTEX_POINT('',#1643);
#541=VERTEX_POINT('',#1645);
#542=VERTEX_POINT('',#1647);
#543=VERTEX_POINT('',#1649);
#544=VERTEX_POINT('',#1651);
#545=VERTEX_POINT('',#1655);
#546=VERTEX_POINT('',#1657);
#547=VERTEX_POINT('',#1661);
#548=VERTEX_POINT('',#1663);
#549=VERTEX_POINT('',#1665);
#550=VERTEX_POINT('',#1667);
#551=VERTEX_POINT('',#1674);
#552=VERTEX_POINT('',#1676);
#553=VERTEX_POINT('',#1678);
#554=VERTEX_POINT('',#1680);
#555=VERTEX_POINT('',#1682);
#556=VERTEX_POINT('',#1686);
#557=VERTEX_POINT('',#1688);
#558=VERTEX_POINT('',#1690);
#559=VERTEX_POINT('',#1692);
#560=VERTEX_POINT('',#1694);
#561=VERTEX_POINT('',#1698);
#562=VERTEX_POINT('',#1702);
#563=VERTEX_POINT('',#1706);
#564=VERTEX_POINT('',#1707);
#565=VERTEX_POINT('',#1709);
#566=VERTEX_POINT('',#1711);
#567=VERTEX_POINT('',#1715);
#568=VERTEX_POINT('',#1717);
#569=VERTEX_POINT('',#1721);
#570=VERTEX_POINT('',#1725);
#571=VERTEX_POINT('',#1729);
#572=VERTEX_POINT('',#1730);
#573=VERTEX_POINT('',#1732);
#574=VERTEX_POINT('',#1734);
#575=VERTEX_POINT('',#1737);
#576=VERTEX_POINT('',#1738);
#577=VERTEX_POINT('',#1740);
#578=VERTEX_POINT('',#1742);
#579=VERTEX_POINT('',#1745);
#580=VERTEX_POINT('',#1747);
#581=VERTEX_POINT('',#1749);
#582=VERTEX_POINT('',#1751);
#583=VERTEX_POINT('',#1753);
#584=VERTEX_POINT('',#1757);
#585=VERTEX_POINT('',#1758);
#586=VERTEX_POINT('',#1760);
#587=VERTEX_POINT('',#1762);
#588=VERTEX_POINT('',#1764);
#589=VERTEX_POINT('',#1766);
#590=VERTEX_POINT('',#1768);
#591=VERTEX_POINT('',#1770);
#592=VERTEX_POINT('',#1772);
#593=VERTEX_POINT('',#1774);
#594=VERTEX_POINT('',#1776);
#595=VERTEX_POINT('',#1778);
#596=VERTEX_POINT('',#1780);
#597=VERTEX_POINT('',#1782);
#598=VERTEX_POINT('',#1785);
#599=VERTEX_POINT('',#1786);
#600=VERTEX_POINT('',#1788);
#601=VERTEX_POINT('',#1790);
#602=VERTEX_POINT('',#1799);
#603=VERTEX_POINT('',#1800);
#604=VERTEX_POINT('',#1804);
#605=VERTEX_POINT('',#1807);
#606=VERTEX_POINT('',#1809);
#607=VERTEX_POINT('',#1811);
#608=VERTEX_POINT('',#1813);
#609=VERTEX_POINT('',#1817);
#610=VERTEX_POINT('',#1820);
#611=VERTEX_POINT('',#1822);
#612=VERTEX_POINT('',#1826);
#613=VERTEX_POINT('',#1829);
#614=VERTEX_POINT('',#1831);
#615=VERTEX_POINT('',#1833);
#616=VERTEX_POINT('',#1837);
#617=VERTEX_POINT('',#1840);
#618=VERTEX_POINT('',#1842);
#619=VERTEX_POINT('',#1844);
#620=VERTEX_POINT('',#1846);
#621=VERTEX_POINT('',#1848);
#622=VERTEX_POINT('',#1850);
#623=VERTEX_POINT('',#1853);
#624=VERTEX_POINT('',#1856);
#625=VERTEX_POINT('',#1857);
#626=VERTEX_POINT('',#1859);
#627=VERTEX_POINT('',#1861);
#628=VERTEX_POINT('',#1865);
#629=VERTEX_POINT('',#1867);
#630=VERTEX_POINT('',#1871);
#631=VERTEX_POINT('',#1875);
#632=VERTEX_POINT('',#1879);
#633=VERTEX_POINT('',#1883);
#634=VERTEX_POINT('',#1896);
#635=VERTEX_POINT('',#1903);
#636=VERTEX_POINT('',#1905);
#637=VERTEX_POINT('',#1912);
#638=VERTEX_POINT('',#1915);
#639=VERTEX_POINT('',#1917);
#640=VERTEX_POINT('',#1927);
#641=VERTEX_POINT('',#1939);
#642=VERTEX_POINT('',#1941);
#643=VERTEX_POINT('',#1947);
#644=EDGE_CURVE('',#531,#531,#511,.T.);
#645=EDGE_CURVE('',#531,#532,#209,.T.);
#646=EDGE_CURVE('',#532,#532,#512,.T.);
#647=EDGE_CURVE('',#533,#533,#513,.T.);
#648=EDGE_CURVE('',#533,#534,#210,.T.);
#649=EDGE_CURVE('',#534,#534,#514,.T.);
#650=EDGE_CURVE('',#535,#536,#211,.T.);
#651=EDGE_CURVE('',#537,#535,#212,.T.);
#652=EDGE_CURVE('',#538,#537,#213,.T.);
#653=EDGE_CURVE('',#538,#536,#214,.T.);
#654=EDGE_CURVE('',#536,#539,#215,.T.);
#655=EDGE_CURVE('',#540,#538,#216,.T.);
#656=EDGE_CURVE('',#540,#541,#217,.T.);
#657=EDGE_CURVE('',#541,#542,#218,.T.);
#658=EDGE_CURVE('',#543,#542,#219,.T.);
#659=EDGE_CURVE('',#544,#543,#220,.T.);
#660=EDGE_CURVE('',#539,#544,#221,.T.);
#661=EDGE_CURVE('',#545,#540,#222,.T.);
#662=EDGE_CURVE('',#545,#546,#223,.T.);
#663=EDGE_CURVE('',#546,#541,#224,.T.);
#664=EDGE_CURVE('',#547,#535,#225,.T.);
#665=EDGE_CURVE('',#548,#547,#226,.T.);
#666=EDGE_CURVE('',#549,#548,#227,.T.);
#667=EDGE_CURVE('',#550,#549,#228,.T.);
#668=EDGE_CURVE('',#550,#546,#229,.T.);
#669=EDGE_CURVE('',#537,#545,#230,.T.);
#670=EDGE_CURVE('',#542,#550,#231,.T.);
#671=EDGE_CURVE('',#551,#539,#232,.T.);
#672=EDGE_CURVE('',#552,#551,#233,.T.);
#673=EDGE_CURVE('',#553,#552,#234,.T.);
#674=EDGE_CURVE('',#554,#553,#235,.T.);
#675=EDGE_CURVE('',#555,#554,#236,.T.);
#676=EDGE_CURVE('',#547,#555,#237,.T.);
#677=EDGE_CURVE('',#556,#544,#238,.T.);
#678=EDGE_CURVE('',#557,#556,#239,.T.);
#679=EDGE_CURVE('',#558,#557,#240,.T.);
#680=EDGE_CURVE('',#559,#558,#241,.T.);
#681=EDGE_CURVE('',#559,#560,#242,.T.);
#682=EDGE_CURVE('',#551,#560,#243,.T.);
#683=EDGE_CURVE('',#561,#555,#244,.T.);
#684=EDGE_CURVE('',#548,#561,#245,.T.);
#685=EDGE_CURVE('',#543,#562,#246,.T.);
#686=EDGE_CURVE('',#556,#562,#247,.T.);
#687=EDGE_CURVE('',#563,#564,#515,.T.);
#688=EDGE_CURVE('',#564,#565,#248,.T.);
#689=EDGE_CURVE('',#565,#566,#516,.T.);
#690=EDGE_CURVE('',#563,#566,#249,.T.);
#691=EDGE_CURVE('',#567,#565,#250,.T.);
#692=EDGE_CURVE('',#568,#567,#517,.T.);
#693=EDGE_CURVE('',#566,#568,#251,.T.);
#694=EDGE_CURVE('',#564,#569,#252,.T.);
#695=EDGE_CURVE('',#567,#569,#253,.T.);
#696=EDGE_CURVE('',#569,#570,#518,.T.);
#697=EDGE_CURVE('',#568,#570,#254,.T.);
#698=EDGE_CURVE('',#571,#572,#255,.T.);
#699=EDGE_CURVE('',#571,#573,#256,.T.);
#700=EDGE_CURVE('',#573,#574,#257,.T.);
#701=EDGE_CURVE('',#572,#574,#258,.T.);
#702=EDGE_CURVE('',#575,#576,#259,.T.);
#703=EDGE_CURVE('',#575,#577,#260,.T.);
#704=EDGE_CURVE('',#578,#577,#261,.T.);
#705=EDGE_CURVE('',#578,#576,#262,.T.);
#706=EDGE_CURVE('',#579,#570,#263,.T.);
#707=EDGE_CURVE('',#579,#580,#264,.T.);
#708=EDGE_CURVE('',#581,#580,#519,.T.);
#709=EDGE_CURVE('',#581,#582,#265,.T.);
#710=EDGE_CURVE('',#583,#582,#520,.T.);
#711=EDGE_CURVE('',#583,#563,#266,.T.);
#712=EDGE_CURVE('',#584,#585,#267,.T.);
#713=EDGE_CURVE('',#586,#584,#268,.T.);
#714=EDGE_CURVE('',#587,#586,#269,.T.);
#715=EDGE_CURVE('',#588,#587,#270,.T.);
#716=EDGE_CURVE('',#589,#588,#271,.T.);
#717=EDGE_CURVE('',#590,#589,#272,.T.);
#718=EDGE_CURVE('',#591,#590,#273,.T.);
#719=EDGE_CURVE('',#592,#591,#521,.T.);
#720=EDGE_CURVE('',#593,#592,#274,.T.);
#721=EDGE_CURVE('',#594,#593,#522,.T.);
#722=EDGE_CURVE('',#595,#594,#275,.T.);
#723=EDGE_CURVE('',#596,#595,#276,.T.);
#724=EDGE_CURVE('',#597,#596,#277,.T.);
#725=EDGE_CURVE('',#585,#597,#278,.T.);
#726=EDGE_CURVE('',#598,#599,#279,.T.);
#727=EDGE_CURVE('',#600,#598,#280,.T.);
#728=EDGE_CURVE('',#601,#600,#281,.T.);
#729=EDGE_CURVE('',#599,#601,#282,.T.);
#730=EDGE_CURVE('',#578,#598,#283,.T.);
#731=EDGE_CURVE('',#600,#577,#284,.T.);
#732=EDGE_CURVE('',#599,#576,#285,.T.);
#733=EDGE_CURVE('',#602,#603,#286,.T.);
#734=EDGE_CURVE('',#574,#603,#287,.T.);
#735=EDGE_CURVE('',#573,#602,#288,.T.);
#736=EDGE_CURVE('',#604,#604,#523,.T.);
#737=EDGE_CURVE('',#553,#589,#289,.T.);
#738=EDGE_CURVE('',#588,#605,#290,.T.);
#739=EDGE_CURVE('',#605,#606,#291,.T.);
#740=EDGE_CURVE('',#606,#607,#292,.T.);
#741=EDGE_CURVE('',#607,#608,#293,.T.);
#742=EDGE_CURVE('',#608,#554,#294,.T.);
#743=EDGE_CURVE('',#609,#572,#295,.T.);
#744=EDGE_CURVE('',#603,#609,#296,.T.);
#745=EDGE_CURVE('',#610,#586,#297,.T.);
#746=EDGE_CURVE('',#584,#611,#298,.T.);
#747=EDGE_CURVE('',#611,#610,#299,.T.);
#748=EDGE_CURVE('',#612,#609,#300,.T.);
#749=EDGE_CURVE('',#612,#571,#301,.T.);
#750=EDGE_CURVE('',#613,#613,#524,.T.);
#751=EDGE_CURVE('',#614,#597,#302,.T.);
#752=EDGE_CURVE('',#596,#615,#303,.T.);
#753=EDGE_CURVE('',#615,#614,#304,.T.);
#754=EDGE_CURVE('',#616,#611,#305,.T.);
#755=EDGE_CURVE('',#614,#616,#306,.T.);
#756=EDGE_CURVE('',#617,#615,#307,.T.);
#757=EDGE_CURVE('',#618,#617,#308,.T.);
#758=EDGE_CURVE('',#619,#618,#525,.T.);
#759=EDGE_CURVE('',#620,#619,#309,.T.);
#760=EDGE_CURVE('',#621,#620,#526,.T.);
#761=EDGE_CURVE('',#622,#621,#310,.T.);
#762=EDGE_CURVE('',#606,#622,#311,.T.);
#763=EDGE_CURVE('',#623,#605,#312,.T.);
#764=EDGE_CURVE('',#610,#623,#313,.T.);
#765=EDGE_CURVE('',#624,#625,#314,.T.);
#766=EDGE_CURVE('',#626,#624,#315,.T.);
#767=EDGE_CURVE('',#627,#626,#316,.T.);
#768=EDGE_CURVE('',#625,#627,#317,.T.);
#769=EDGE_CURVE('',#624,#628,#318,.T.);
#770=EDGE_CURVE('',#629,#628,#319,.T.);
#771=EDGE_CURVE('',#629,#626,#320,.T.);
#772=EDGE_CURVE('',#630,#625,#321,.T.);
#773=EDGE_CURVE('',#630,#628,#322,.T.);
#774=EDGE_CURVE('',#604,#631,#323,.T.);
#775=EDGE_CURVE('',#631,#631,#527,.T.);
#776=EDGE_CURVE('',#632,#632,#528,.T.);
#777=EDGE_CURVE('',#632,#613,#324,.T.);
#778=EDGE_CURVE('',#629,#633,#325,.T.);
#779=EDGE_CURVE('',#627,#633,#326,.T.);
#780=EDGE_CURVE('',#585,#616,#327,.T.);
#781=EDGE_CURVE('',#575,#601,#328,.T.);
#782=EDGE_CURVE('',#623,#587,#329,.T.);
#783=EDGE_CURVE('',#630,#633,#330,.T.);
#784=EDGE_CURVE('',#634,#561,#331,.T.);
#785=EDGE_CURVE('',#634,#549,#332,.T.);
#786=EDGE_CURVE('',#608,#559,#333,.T.);
#787=EDGE_CURVE('',#555,#559,#334,.T.);
#788=EDGE_CURVE('',#635,#557,#335,.T.);
#789=EDGE_CURVE('',#635,#636,#336,.T.);
#790=EDGE_CURVE('',#636,#558,#337,.T.);
#791=EDGE_CURVE('',#636,#634,#338,.T.);
#792=EDGE_CURVE('',#590,#563,#339,.T.);
#793=EDGE_CURVE('',#637,#552,#340,.T.);
#794=EDGE_CURVE('',#637,#607,#341,.T.);
#795=EDGE_CURVE('',#638,#622,#342,.T.);
#796=EDGE_CURVE('',#638,#639,#343,.T.);
#797=EDGE_CURVE('',#617,#639,#344,.T.);
#798=EDGE_CURVE('',#579,#595,#345,.T.);
#799=EDGE_CURVE('',#560,#637,#346,.T.);
#800=EDGE_CURVE('',#562,#635,#347,.T.);
#801=EDGE_CURVE('',#640,#621,#348,.T.);
#802=EDGE_CURVE('',#638,#640,#349,.T.);
#803=EDGE_CURVE('',#580,#594,#350,.T.);
#804=EDGE_CURVE('',#591,#583,#351,.T.);
#805=EDGE_CURVE('',#582,#592,#352,.T.);
#806=EDGE_CURVE('',#593,#581,#353,.T.);
#807=EDGE_CURVE('',#618,#641,#354,.T.);
#808=EDGE_CURVE('',#641,#642,#529,.T.);
#809=EDGE_CURVE('',#642,#619,#355,.T.);
#810=EDGE_CURVE('',#641,#639,#356,.T.);
#811=EDGE_CURVE('',#620,#643,#357,.T.);
#812=EDGE_CURVE('',#643,#640,#530,.T.);
#813=EDGE_CURVE('',#602,#612,#358,.T.);
#814=EDGE_CURVE('',#643,#642,#359,.T.);
#815=ORIENTED_EDGE('',*,*,#644,.F.);
#816=ORIENTED_EDGE('',*,*,#645,.T.);
#817=ORIENTED_EDGE('',*,*,#646,.F.);
#818=ORIENTED_EDGE('',*,*,#645,.F.);
#819=ORIENTED_EDGE('',*,*,#647,.F.);
#820=ORIENTED_EDGE('',*,*,#648,.T.);
#821=ORIENTED_EDGE('',*,*,#649,.F.);
#822=ORIENTED_EDGE('',*,*,#648,.F.);
#823=ORIENTED_EDGE('',*,*,#650,.F.);
#824=ORIENTED_EDGE('',*,*,#651,.F.);
#825=ORIENTED_EDGE('',*,*,#652,.F.);
#826=ORIENTED_EDGE('',*,*,#653,.T.);
#827=ORIENTED_EDGE('',*,*,#654,.F.);
#828=ORIENTED_EDGE('',*,*,#653,.F.);
#829=ORIENTED_EDGE('',*,*,#655,.F.);
#830=ORIENTED_EDGE('',*,*,#656,.T.);
#831=ORIENTED_EDGE('',*,*,#657,.T.);
#832=ORIENTED_EDGE('',*,*,#658,.F.);
#833=ORIENTED_EDGE('',*,*,#659,.F.);
#834=ORIENTED_EDGE('',*,*,#660,.F.);
#835=ORIENTED_EDGE('',*,*,#661,.F.);
#836=ORIENTED_EDGE('',*,*,#662,.T.);
#837=ORIENTED_EDGE('',*,*,#663,.T.);
#838=ORIENTED_EDGE('',*,*,#656,.F.);
#839=ORIENTED_EDGE('',*,*,#664,.F.);
#840=ORIENTED_EDGE('',*,*,#665,.F.);
#841=ORIENTED_EDGE('',*,*,#666,.F.);
#842=ORIENTED_EDGE('',*,*,#667,.F.);
#843=ORIENTED_EDGE('',*,*,#668,.T.);
#844=ORIENTED_EDGE('',*,*,#662,.F.);
#845=ORIENTED_EDGE('',*,*,#669,.F.);
#846=ORIENTED_EDGE('',*,*,#651,.T.);
#847=ORIENTED_EDGE('',*,*,#670,.F.);
#848=ORIENTED_EDGE('',*,*,#657,.F.);
#849=ORIENTED_EDGE('',*,*,#663,.F.);
#850=ORIENTED_EDGE('',*,*,#668,.F.);
#851=ORIENTED_EDGE('',*,*,#664,.T.);
#852=ORIENTED_EDGE('',*,*,#650,.T.);
#853=ORIENTED_EDGE('',*,*,#654,.T.);
#854=ORIENTED_EDGE('',*,*,#671,.F.);
#855=ORIENTED_EDGE('',*,*,#672,.F.);
#856=ORIENTED_EDGE('',*,*,#673,.F.);
#857=ORIENTED_EDGE('',*,*,#674,.F.);
#858=ORIENTED_EDGE('',*,*,#675,.F.);
#859=ORIENTED_EDGE('',*,*,#676,.F.);
#860=ORIENTED_EDGE('',*,*,#660,.T.);
#861=ORIENTED_EDGE('',*,*,#677,.F.);
#862=ORIENTED_EDGE('',*,*,#678,.F.);
#863=ORIENTED_EDGE('',*,*,#679,.F.);
#864=ORIENTED_EDGE('',*,*,#680,.F.);
#865=ORIENTED_EDGE('',*,*,#681,.T.);
#866=ORIENTED_EDGE('',*,*,#682,.F.);
#867=ORIENTED_EDGE('',*,*,#671,.T.);
#868=ORIENTED_EDGE('',*,*,#665,.T.);
#869=ORIENTED_EDGE('',*,*,#676,.T.);
#870=ORIENTED_EDGE('',*,*,#683,.F.);
#871=ORIENTED_EDGE('',*,*,#684,.F.);
#872=ORIENTED_EDGE('',*,*,#659,.T.);
#873=ORIENTED_EDGE('',*,*,#685,.T.);
#874=ORIENTED_EDGE('',*,*,#686,.F.);
#875=ORIENTED_EDGE('',*,*,#677,.T.);
#876=ORIENTED_EDGE('',*,*,#646,.T.);
#877=ORIENTED_EDGE('',*,*,#649,.T.);
#878=ORIENTED_EDGE('',*,*,#687,.T.);
#879=ORIENTED_EDGE('',*,*,#688,.T.);
#880=ORIENTED_EDGE('',*,*,#689,.T.);
#881=ORIENTED_EDGE('',*,*,#690,.F.);
#882=ORIENTED_EDGE('',*,*,#689,.F.);
#883=ORIENTED_EDGE('',*,*,#691,.F.);
#884=ORIENTED_EDGE('',*,*,#692,.F.);
#885=ORIENTED_EDGE('',*,*,#693,.F.);
#886=ORIENTED_EDGE('',*,*,#688,.F.);
#887=ORIENTED_EDGE('',*,*,#694,.T.);
#888=ORIENTED_EDGE('',*,*,#695,.F.);
#889=ORIENTED_EDGE('',*,*,#691,.T.);
#890=ORIENTED_EDGE('',*,*,#692,.T.);
#891=ORIENTED_EDGE('',*,*,#695,.T.);
#892=ORIENTED_EDGE('',*,*,#696,.T.);
#893=ORIENTED_EDGE('',*,*,#697,.F.);
#894=ORIENTED_EDGE('',*,*,#698,.F.);
#895=ORIENTED_EDGE('',*,*,#699,.T.);
#896=ORIENTED_EDGE('',*,*,#700,.T.);
#897=ORIENTED_EDGE('',*,*,#701,.F.);
#898=ORIENTED_EDGE('',*,*,#644,.T.);
#899=ORIENTED_EDGE('',*,*,#647,.T.);
#900=ORIENTED_EDGE('',*,*,#661,.T.);
#901=ORIENTED_EDGE('',*,*,#655,.T.);
#902=ORIENTED_EDGE('',*,*,#652,.T.);
#903=ORIENTED_EDGE('',*,*,#669,.T.);
#904=ORIENTED_EDGE('',*,*,#702,.F.);
#905=ORIENTED_EDGE('',*,*,#703,.T.);
#906=ORIENTED_EDGE('',*,*,#704,.F.);
#907=ORIENTED_EDGE('',*,*,#705,.T.);
#908=ORIENTED_EDGE('',*,*,#690,.T.);
#909=ORIENTED_EDGE('',*,*,#693,.T.);
#910=ORIENTED_EDGE('',*,*,#697,.T.);
#911=ORIENTED_EDGE('',*,*,#706,.F.);
#912=ORIENTED_EDGE('',*,*,#707,.T.);
#913=ORIENTED_EDGE('',*,*,#708,.F.);
#914=ORIENTED_EDGE('',*,*,#709,.T.);
#915=ORIENTED_EDGE('',*,*,#710,.F.);
#916=ORIENTED_EDGE('',*,*,#711,.T.);
#917=ORIENTED_EDGE('',*,*,#712,.F.);
#918=ORIENTED_EDGE('',*,*,#713,.F.);
#919=ORIENTED_EDGE('',*,*,#714,.F.);
#920=ORIENTED_EDGE('',*,*,#715,.F.);
#921=ORIENTED_EDGE('',*,*,#716,.F.);
#922=ORIENTED_EDGE('',*,*,#717,.F.);
#923=ORIENTED_EDGE('',*,*,#718,.F.);
#924=ORIENTED_EDGE('',*,*,#719,.F.);
#925=ORIENTED_EDGE('',*,*,#720,.F.);
#926=ORIENTED_EDGE('',*,*,#721,.F.);
#927=ORIENTED_EDGE('',*,*,#722,.F.);
#928=ORIENTED_EDGE('',*,*,#723,.F.);
#929=ORIENTED_EDGE('',*,*,#724,.F.);
#930=ORIENTED_EDGE('',*,*,#725,.F.);
#931=ORIENTED_EDGE('',*,*,#726,.F.);
#932=ORIENTED_EDGE('',*,*,#727,.F.);
#933=ORIENTED_EDGE('',*,*,#728,.F.);
#934=ORIENTED_EDGE('',*,*,#729,.F.);
#935=ORIENTED_EDGE('',*,*,#727,.T.);
#936=ORIENTED_EDGE('',*,*,#730,.F.);
#937=ORIENTED_EDGE('',*,*,#704,.T.);
#938=ORIENTED_EDGE('',*,*,#731,.F.);
#939=ORIENTED_EDGE('',*,*,#726,.T.);
#940=ORIENTED_EDGE('',*,*,#732,.T.);
#941=ORIENTED_EDGE('',*,*,#705,.F.);
#942=ORIENTED_EDGE('',*,*,#730,.T.);
#943=ORIENTED_EDGE('',*,*,#733,.T.);
#944=ORIENTED_EDGE('',*,*,#734,.F.);
#945=ORIENTED_EDGE('',*,*,#700,.F.);
#946=ORIENTED_EDGE('',*,*,#735,.T.);
#947=ORIENTED_EDGE('',*,*,#736,.T.);
#948=ORIENTED_EDGE('',*,*,#737,.T.);
#949=ORIENTED_EDGE('',*,*,#716,.T.);
#950=ORIENTED_EDGE('',*,*,#738,.T.);
#951=ORIENTED_EDGE('',*,*,#739,.T.);
#952=ORIENTED_EDGE('',*,*,#740,.T.);
#953=ORIENTED_EDGE('',*,*,#741,.T.);
#954=ORIENTED_EDGE('',*,*,#742,.T.);
#955=ORIENTED_EDGE('',*,*,#674,.T.);
#956=ORIENTED_EDGE('',*,*,#743,.T.);
#957=ORIENTED_EDGE('',*,*,#701,.T.);
#958=ORIENTED_EDGE('',*,*,#734,.T.);
#959=ORIENTED_EDGE('',*,*,#744,.T.);
#960=ORIENTED_EDGE('',*,*,#745,.T.);
#961=ORIENTED_EDGE('',*,*,#713,.T.);
#962=ORIENTED_EDGE('',*,*,#746,.T.);
#963=ORIENTED_EDGE('',*,*,#747,.T.);
#964=ORIENTED_EDGE('',*,*,#748,.F.);
#965=ORIENTED_EDGE('',*,*,#749,.T.);
#966=ORIENTED_EDGE('',*,*,#698,.T.);
#967=ORIENTED_EDGE('',*,*,#743,.F.);
#968=ORIENTED_EDGE('',*,*,#750,.T.);
#969=ORIENTED_EDGE('',*,*,#751,.T.);
#970=ORIENTED_EDGE('',*,*,#724,.T.);
#971=ORIENTED_EDGE('',*,*,#752,.T.);
#972=ORIENTED_EDGE('',*,*,#753,.T.);
#973=ORIENTED_EDGE('',*,*,#754,.F.);
#974=ORIENTED_EDGE('',*,*,#755,.F.);
#975=ORIENTED_EDGE('',*,*,#753,.F.);
#976=ORIENTED_EDGE('',*,*,#756,.F.);
#977=ORIENTED_EDGE('',*,*,#757,.F.);
#978=ORIENTED_EDGE('',*,*,#758,.F.);
#979=ORIENTED_EDGE('',*,*,#759,.F.);
#980=ORIENTED_EDGE('',*,*,#760,.F.);
#981=ORIENTED_EDGE('',*,*,#761,.F.);
#982=ORIENTED_EDGE('',*,*,#762,.F.);
#983=ORIENTED_EDGE('',*,*,#739,.F.);
#984=ORIENTED_EDGE('',*,*,#763,.F.);
#985=ORIENTED_EDGE('',*,*,#764,.F.);
#986=ORIENTED_EDGE('',*,*,#747,.F.);
#987=ORIENTED_EDGE('',*,*,#765,.F.);
#988=ORIENTED_EDGE('',*,*,#766,.F.);
#989=ORIENTED_EDGE('',*,*,#767,.F.);
#990=ORIENTED_EDGE('',*,*,#768,.F.);
#991=ORIENTED_EDGE('',*,*,#766,.T.);
#992=ORIENTED_EDGE('',*,*,#769,.T.);
#993=ORIENTED_EDGE('',*,*,#770,.F.);
#994=ORIENTED_EDGE('',*,*,#771,.T.);
#995=ORIENTED_EDGE('',*,*,#765,.T.);
#996=ORIENTED_EDGE('',*,*,#772,.F.);
#997=ORIENTED_EDGE('',*,*,#773,.T.);
#998=ORIENTED_EDGE('',*,*,#769,.F.);
#999=ORIENTED_EDGE('',*,*,#736,.F.);
#1000=ORIENTED_EDGE('',*,*,#774,.T.);
#1001=ORIENTED_EDGE('',*,*,#775,.F.);
#1002=ORIENTED_EDGE('',*,*,#774,.F.);
#1003=ORIENTED_EDGE('',*,*,#776,.F.);
#1004=ORIENTED_EDGE('',*,*,#777,.T.);
#1005=ORIENTED_EDGE('',*,*,#750,.F.);
#1006=ORIENTED_EDGE('',*,*,#777,.F.);
#1007=ORIENTED_EDGE('',*,*,#767,.T.);
#1008=ORIENTED_EDGE('',*,*,#771,.F.);
#1009=ORIENTED_EDGE('',*,*,#778,.T.);
#1010=ORIENTED_EDGE('',*,*,#779,.F.);
#1011=ORIENTED_EDGE('',*,*,#746,.F.);
#1012=ORIENTED_EDGE('',*,*,#712,.T.);
#1013=ORIENTED_EDGE('',*,*,#780,.T.);
#1014=ORIENTED_EDGE('',*,*,#754,.T.);
#1015=ORIENTED_EDGE('',*,*,#776,.T.);
#1016=ORIENTED_EDGE('',*,*,#729,.T.);
#1017=ORIENTED_EDGE('',*,*,#781,.F.);
#1018=ORIENTED_EDGE('',*,*,#702,.T.);
#1019=ORIENTED_EDGE('',*,*,#732,.F.);
#1020=ORIENTED_EDGE('',*,*,#728,.T.);
#1021=ORIENTED_EDGE('',*,*,#731,.T.);
#1022=ORIENTED_EDGE('',*,*,#703,.F.);
#1023=ORIENTED_EDGE('',*,*,#781,.T.);
#1024=ORIENTED_EDGE('',*,*,#782,.T.);
#1025=ORIENTED_EDGE('',*,*,#714,.T.);
#1026=ORIENTED_EDGE('',*,*,#745,.F.);
#1027=ORIENTED_EDGE('',*,*,#764,.T.);
#1028=ORIENTED_EDGE('',*,*,#775,.T.);
#1029=ORIENTED_EDGE('',*,*,#768,.T.);
#1030=ORIENTED_EDGE('',*,*,#779,.T.);
#1031=ORIENTED_EDGE('',*,*,#783,.F.);
#1032=ORIENTED_EDGE('',*,*,#772,.T.);
#1033=ORIENTED_EDGE('',*,*,#666,.T.);
#1034=ORIENTED_EDGE('',*,*,#684,.T.);
#1035=ORIENTED_EDGE('',*,*,#784,.F.);
#1036=ORIENTED_EDGE('',*,*,#785,.T.);
#1037=ORIENTED_EDGE('',*,*,#675,.T.);
#1038=ORIENTED_EDGE('',*,*,#742,.F.);
#1039=ORIENTED_EDGE('',*,*,#786,.T.);
#1040=ORIENTED_EDGE('',*,*,#787,.F.);
#1041=ORIENTED_EDGE('',*,*,#679,.T.);
#1042=ORIENTED_EDGE('',*,*,#788,.F.);
#1043=ORIENTED_EDGE('',*,*,#789,.T.);
#1044=ORIENTED_EDGE('',*,*,#790,.T.);
#1045=ORIENTED_EDGE('',*,*,#683,.T.);
#1046=ORIENTED_EDGE('',*,*,#787,.T.);
#1047=ORIENTED_EDGE('',*,*,#680,.T.);
#1048=ORIENTED_EDGE('',*,*,#790,.F.);
#1049=ORIENTED_EDGE('',*,*,#791,.T.);
#1050=ORIENTED_EDGE('',*,*,#784,.T.);
#1051=ORIENTED_EDGE('',*,*,#687,.F.);
#1052=ORIENTED_EDGE('',*,*,#792,.F.);
#1053=ORIENTED_EDGE('',*,*,#717,.T.);
#1054=ORIENTED_EDGE('',*,*,#737,.F.);
#1055=ORIENTED_EDGE('',*,*,#673,.T.);
#1056=ORIENTED_EDGE('',*,*,#793,.F.);
#1057=ORIENTED_EDGE('',*,*,#794,.T.);
#1058=ORIENTED_EDGE('',*,*,#740,.F.);
#1059=ORIENTED_EDGE('',*,*,#762,.T.);
#1060=ORIENTED_EDGE('',*,*,#795,.F.);
#1061=ORIENTED_EDGE('',*,*,#796,.T.);
#1062=ORIENTED_EDGE('',*,*,#797,.F.);
#1063=ORIENTED_EDGE('',*,*,#756,.T.);
#1064=ORIENTED_EDGE('',*,*,#752,.F.);
#1065=ORIENTED_EDGE('',*,*,#723,.T.);
#1066=ORIENTED_EDGE('',*,*,#798,.F.);
#1067=ORIENTED_EDGE('',*,*,#706,.T.);
#1068=ORIENTED_EDGE('',*,*,#696,.F.);
#1069=ORIENTED_EDGE('',*,*,#694,.F.);
#1070=ORIENTED_EDGE('',*,*,#672,.T.);
#1071=ORIENTED_EDGE('',*,*,#682,.T.);
#1072=ORIENTED_EDGE('',*,*,#799,.T.);
#1073=ORIENTED_EDGE('',*,*,#793,.T.);
#1074=ORIENTED_EDGE('',*,*,#678,.T.);
#1075=ORIENTED_EDGE('',*,*,#686,.T.);
#1076=ORIENTED_EDGE('',*,*,#800,.T.);
#1077=ORIENTED_EDGE('',*,*,#788,.T.);
#1078=ORIENTED_EDGE('',*,*,#794,.F.);
#1079=ORIENTED_EDGE('',*,*,#799,.F.);
#1080=ORIENTED_EDGE('',*,*,#681,.F.);
#1081=ORIENTED_EDGE('',*,*,#786,.F.);
#1082=ORIENTED_EDGE('',*,*,#741,.F.);
#1083=ORIENTED_EDGE('',*,*,#761,.T.);
#1084=ORIENTED_EDGE('',*,*,#801,.F.);
#1085=ORIENTED_EDGE('',*,*,#802,.F.);
#1086=ORIENTED_EDGE('',*,*,#795,.T.);
#1087=ORIENTED_EDGE('',*,*,#722,.T.);
#1088=ORIENTED_EDGE('',*,*,#803,.F.);
#1089=ORIENTED_EDGE('',*,*,#707,.F.);
#1090=ORIENTED_EDGE('',*,*,#798,.T.);
#1091=ORIENTED_EDGE('',*,*,#719,.T.);
#1092=ORIENTED_EDGE('',*,*,#804,.T.);
#1093=ORIENTED_EDGE('',*,*,#710,.T.);
#1094=ORIENTED_EDGE('',*,*,#805,.T.);
#1095=ORIENTED_EDGE('',*,*,#718,.T.);
#1096=ORIENTED_EDGE('',*,*,#792,.T.);
#1097=ORIENTED_EDGE('',*,*,#711,.F.);
#1098=ORIENTED_EDGE('',*,*,#804,.F.);
#1099=ORIENTED_EDGE('',*,*,#721,.T.);
#1100=ORIENTED_EDGE('',*,*,#806,.T.);
#1101=ORIENTED_EDGE('',*,*,#708,.T.);
#1102=ORIENTED_EDGE('',*,*,#803,.T.);
#1103=ORIENTED_EDGE('',*,*,#758,.T.);
#1104=ORIENTED_EDGE('',*,*,#807,.T.);
#1105=ORIENTED_EDGE('',*,*,#808,.T.);
#1106=ORIENTED_EDGE('',*,*,#809,.T.);
#1107=ORIENTED_EDGE('',*,*,#757,.T.);
#1108=ORIENTED_EDGE('',*,*,#797,.T.);
#1109=ORIENTED_EDGE('',*,*,#810,.F.);
#1110=ORIENTED_EDGE('',*,*,#807,.F.);
#1111=ORIENTED_EDGE('',*,*,#760,.T.);
#1112=ORIENTED_EDGE('',*,*,#811,.T.);
#1113=ORIENTED_EDGE('',*,*,#812,.T.);
#1114=ORIENTED_EDGE('',*,*,#801,.T.);
#1115=ORIENTED_EDGE('',*,*,#738,.F.);
#1116=ORIENTED_EDGE('',*,*,#715,.T.);
#1117=ORIENTED_EDGE('',*,*,#782,.F.);
#1118=ORIENTED_EDGE('',*,*,#763,.T.);
#1119=ORIENTED_EDGE('',*,*,#780,.F.);
#1120=ORIENTED_EDGE('',*,*,#725,.T.);
#1121=ORIENTED_EDGE('',*,*,#751,.F.);
#1122=ORIENTED_EDGE('',*,*,#755,.T.);
#1123=ORIENTED_EDGE('',*,*,#748,.T.);
#1124=ORIENTED_EDGE('',*,*,#744,.F.);
#1125=ORIENTED_EDGE('',*,*,#733,.F.);
#1126=ORIENTED_EDGE('',*,*,#813,.T.);
#1127=ORIENTED_EDGE('',*,*,#802,.T.);
#1128=ORIENTED_EDGE('',*,*,#812,.F.);
#1129=ORIENTED_EDGE('',*,*,#814,.T.);
#1130=ORIENTED_EDGE('',*,*,#808,.F.);
#1131=ORIENTED_EDGE('',*,*,#810,.T.);
#1132=ORIENTED_EDGE('',*,*,#796,.F.);
#1133=ORIENTED_EDGE('',*,*,#783,.T.);
#1134=ORIENTED_EDGE('',*,*,#778,.F.);
#1135=ORIENTED_EDGE('',*,*,#770,.T.);
#1136=ORIENTED_EDGE('',*,*,#773,.F.);
#1137=ORIENTED_EDGE('',*,*,#759,.T.);
#1138=ORIENTED_EDGE('',*,*,#809,.F.);
#1139=ORIENTED_EDGE('',*,*,#814,.F.);
#1140=ORIENTED_EDGE('',*,*,#811,.F.);
#1141=ORIENTED_EDGE('',*,*,#720,.T.);
#1142=ORIENTED_EDGE('',*,*,#805,.F.);
#1143=ORIENTED_EDGE('',*,*,#709,.F.);
#1144=ORIENTED_EDGE('',*,*,#806,.F.);
#1145=ORIENTED_EDGE('',*,*,#667,.T.);
#1146=ORIENTED_EDGE('',*,*,#785,.F.);
#1147=ORIENTED_EDGE('',*,*,#791,.F.);
#1148=ORIENTED_EDGE('',*,*,#789,.F.);
#1149=ORIENTED_EDGE('',*,*,#800,.F.);
#1150=ORIENTED_EDGE('',*,*,#685,.F.);
#1151=ORIENTED_EDGE('',*,*,#658,.T.);
#1152=ORIENTED_EDGE('',*,*,#670,.T.);
#1153=ORIENTED_EDGE('',*,*,#813,.F.);
#1154=ORIENTED_EDGE('',*,*,#735,.F.);
#1155=ORIENTED_EDGE('',*,*,#699,.F.);
#1156=ORIENTED_EDGE('',*,*,#749,.F.);
#1157=CYLINDRICAL_SURFACE('',#1237,2.55);
#1158=CYLINDRICAL_SURFACE('',#1240,2.55);
#1159=CYLINDRICAL_SURFACE('',#1252,8.);
#1160=CYLINDRICAL_SURFACE('',#1258,8.);
#1161=CYLINDRICAL_SURFACE('',#1278,6.00000000000001);
#1162=CYLINDRICAL_SURFACE('',#1280,6.00000000000001);
#1163=CYLINDRICAL_SURFACE('',#1298,22.5);
#1164=CYLINDRICAL_SURFACE('',#1300,22.5);
#1165=CYLINDRICAL_SURFACE('',#1301,22.5);
#1166=CYLINDRICAL_SURFACE('',#1304,22.5);
#1167=ADVANCED_FACE('',(#79),#1157,.F.);
#1168=ADVANCED_FACE('',(#80),#1158,.F.);
#1169=ADVANCED_FACE('',(#81),#33,.F.);
#1170=ADVANCED_FACE('',(#82),#34,.F.);
#1171=ADVANCED_FACE('',(#83),#35,.F.);
#1172=ADVANCED_FACE('',(#84),#36,.F.);
#1173=ADVANCED_FACE('',(#85),#37,.F.);
#1174=ADVANCED_FACE('',(#86),#38,.T.);
#1175=ADVANCED_FACE('',(#87),#39,.T.);
#1176=ADVANCED_FACE('',(#88),#40,.T.);
#1177=ADVANCED_FACE('',(#89,#15,#16),#41,.T.);
#1178=ADVANCED_FACE('',(#90),#1159,.T.);
#1179=ADVANCED_FACE('',(#91),#42,.T.);
#1180=ADVANCED_FACE('',(#92),#43,.T.);
#1181=ADVANCED_FACE('',(#93),#1160,.T.);
#1182=ADVANCED_FACE('',(#94,#17,#18,#19,#20,#21),#44,.T.);
#1183=ADVANCED_FACE('',(#95,#22),#45,.T.);
#1184=ADVANCED_FACE('',(#96),#46,.T.);
#1185=ADVANCED_FACE('',(#97),#47,.F.);
#1186=ADVANCED_FACE('',(#98,#23,#24),#48,.T.);
#1187=ADVANCED_FACE('',(#99,#25),#49,.T.);
#1188=ADVANCED_FACE('',(#100,#26,#27),#50,.T.);
#1189=ADVANCED_FACE('',(#101,#28),#51,.T.);
#1190=ADVANCED_FACE('',(#102),#52,.F.);
#1191=ADVANCED_FACE('',(#103),#53,.T.);
#1192=ADVANCED_FACE('',(#104),#1161,.F.);
#1193=ADVANCED_FACE('',(#105),#1162,.F.);
#1194=ADVANCED_FACE('',(#106),#54,.T.);
#1195=ADVANCED_FACE('',(#107,#29),#55,.F.);
#1196=ADVANCED_FACE('',(#108),#56,.T.);
#1197=ADVANCED_FACE('',(#109),#57,.F.);
#1198=ADVANCED_FACE('',(#110,#30),#58,.F.);
#1199=ADVANCED_FACE('',(#111),#59,.F.);
#1200=ADVANCED_FACE('',(#112),#60,.T.);
#1201=ADVANCED_FACE('',(#113),#61,.F.);
#1202=ADVANCED_FACE('',(#114),#62,.T.);
#1203=ADVANCED_FACE('',(#115),#63,.T.);
#1204=ADVANCED_FACE('',(#116),#64,.T.);
#1205=ADVANCED_FACE('',(#117),#65,.T.);
#1206=ADVANCED_FACE('',(#118),#66,.T.);
#1207=ADVANCED_FACE('',(#119),#67,.T.);
#1208=ADVANCED_FACE('',(#120),#68,.F.);
#1209=ADVANCED_FACE('',(#121),#69,.F.);
#1210=ADVANCED_FACE('',(#122),#1163,.F.);
#1211=ADVANCED_FACE('',(#123),#70,.F.);
#1212=ADVANCED_FACE('',(#124),#1164,.F.);
#1213=ADVANCED_FACE('',(#125),#1165,.F.);
#1214=ADVANCED_FACE('',(#126),#71,.F.);
#1215=ADVANCED_FACE('',(#127),#1166,.F.);
#1216=ADVANCED_FACE('',(#128),#72,.T.);
#1217=ADVANCED_FACE('',(#129),#73,.T.);
#1218=ADVANCED_FACE('',(#130,#31,#32),#74,.T.);
#1219=ADVANCED_FACE('',(#131),#75,.F.);
#1220=ADVANCED_FACE('',(#132),#76,.F.);
#1221=ADVANCED_FACE('',(#133),#77,.F.);
#1222=ADVANCED_FACE('',(#134),#78,.F.);
#1223=CLOSED_SHELL('',(#1167,#1168,#1169,#1170,#1171,#1172,#1173,#1174,
#1175,#1176,#1177,#1178,#1179,#1180,#1181,#1182,#1183,#1184,#1185,#1186,
#1187,#1188,#1189,#1190,#1191,#1192,#1193,#1194,#1195,#1196,#1197,#1198,
#1199,#1200,#1201,#1202,#1203,#1204,#1205,#1206,#1207,#1208,#1209,#1210,
#1211,#1212,#1213,#1214,#1215,#1216,#1217,#1218,#1219,#1220,#1221,#1222));
#1224=DERIVED_UNIT_ELEMENT(#1226,1.);
#1225=DERIVED_UNIT_ELEMENT(#1964,-3.);
#1226=(
MASS_UNIT()
NAMED_UNIT(*)
SI_UNIT(.KILO.,.GRAM.)
);
#1227=DERIVED_UNIT((#1224,#1225));
#1228=MEASURE_REPRESENTATION_ITEM('density measure',
POSITIVE_RATIO_MEASURE(1060.),#1227);
#1229=PROPERTY_DEFINITION_REPRESENTATION(#1234,#1231);
#1230=PROPERTY_DEFINITION_REPRESENTATION(#1235,#1232);
#1231=REPRESENTATION('material name',(#1233),#1961);
#1232=REPRESENTATION('density',(#1228),#1961);
#1233=DESCRIPTIVE_REPRESENTATION_ITEM('ABS Plastic','ABS Plastic');
#1234=PROPERTY_DEFINITION('material property','material name',#1971);
#1235=PROPERTY_DEFINITION('material property','density of part',#1971);
#1236=AXIS2_PLACEMENT_3D('',#1618,#1313,#1314);
#1237=AXIS2_PLACEMENT_3D('',#1619,#1315,#1316);
#1238=AXIS2_PLACEMENT_3D('',#1621,#1317,#1318);
#1239=AXIS2_PLACEMENT_3D('',#1624,#1320,#1321);
#1240=AXIS2_PLACEMENT_3D('',#1625,#1322,#1323);
#1241=AXIS2_PLACEMENT_3D('',#1627,#1324,#1325);
#1242=AXIS2_PLACEMENT_3D('',#1630,#1327,#1328);
#1243=AXIS2_PLACEMENT_3D('',#1631,#1329,#1330);
#1244=AXIS2_PLACEMENT_3D('',#1640,#1335,#1336);
#1245=AXIS2_PLACEMENT_3D('',#1654,#1344,#1345);
#1246=AXIS2_PLACEMENT_3D('',#1660,#1349,#1350);
#1247=AXIS2_PLACEMENT_3D('',#1671,#1357,#1358);
#1248=AXIS2_PLACEMENT_3D('',#1673,#1360,#1361);
#1249=AXIS2_PLACEMENT_3D('',#1685,#1368,#1369);
#1250=AXIS2_PLACEMENT_3D('',#1697,#1376,#1377);
#1251=AXIS2_PLACEMENT_3D('',#1701,#1380,#1381);
#1252=AXIS2_PLACEMENT_3D('',#1705,#1384,#1385);
#1253=AXIS2_PLACEMENT_3D('',#1708,#1386,#1387);
#1254=AXIS2_PLACEMENT_3D('',#1712,#1389,#1390);
#1255=AXIS2_PLACEMENT_3D('',#1714,#1392,#1393);
#1256=AXIS2_PLACEMENT_3D('',#1718,#1395,#1396);
#1257=AXIS2_PLACEMENT_3D('',#1720,#1398,#1399);
#1258=AXIS2_PLACEMENT_3D('',#1724,#1402,#1403);
#1259=AXIS2_PLACEMENT_3D('',#1726,#1404,#1405);
#1260=AXIS2_PLACEMENT_3D('',#1728,#1407,#1408);
#1261=AXIS2_PLACEMENT_3D('',#1750,#1419,#1420);
#1262=AXIS2_PLACEMENT_3D('',#1754,#1422,#1423);
#1263=AXIS2_PLACEMENT_3D('',#1756,#1425,#1426);
#1264=AXIS2_PLACEMENT_3D('',#1773,#1434,#1435);
#1265=AXIS2_PLACEMENT_3D('',#1777,#1437,#1438);
#1266=AXIS2_PLACEMENT_3D('',#1793,#1447,#1448);
#1267=AXIS2_PLACEMENT_3D('',#1796,#1451,#1452);
#1268=AXIS2_PLACEMENT_3D('',#1798,#1454,#1455);
#1269=AXIS2_PLACEMENT_3D('',#1805,#1459,#1460);
#1270=AXIS2_PLACEMENT_3D('',#1816,#1467,#1468);
#1271=AXIS2_PLACEMENT_3D('',#1825,#1474,#1475);
#1272=AXIS2_PLACEMENT_3D('',#1830,#1478,#1479);
#1273=AXIS2_PLACEMENT_3D('',#1836,#1483,#1484);
#1274=AXIS2_PLACEMENT_3D('',#1845,#1489,#1490);
#1275=AXIS2_PLACEMENT_3D('',#1849,#1492,#1493);
#1276=AXIS2_PLACEMENT_3D('',#1864,#1502,#1503);
#1277=AXIS2_PLACEMENT_3D('',#1870,#1507,#1508);
#1278=AXIS2_PLACEMENT_3D('',#1874,#1511,#1512);
#1279=AXIS2_PLACEMENT_3D('',#1877,#1514,#1515);
#1280=AXIS2_PLACEMENT_3D('',#1878,#1516,#1517);
#1281=AXIS2_PLACEMENT_3D('',#1880,#1518,#1519);
#1282=AXIS2_PLACEMENT_3D('',#1882,#1521,#1522);
#1283=AXIS2_PLACEMENT_3D('',#1886,#1525,#1526);
#1284=AXIS2_PLACEMENT_3D('',#1888,#1528,#1529);
#1285=AXIS2_PLACEMENT_3D('',#1890,#1531,#1532);
#1286=AXIS2_PLACEMENT_3D('',#1891,#1533,#1534);
#1287=AXIS2_PLACEMENT_3D('',#1893,#1536,#1537);
#1288=AXIS2_PLACEMENT_3D('',#1895,#1539,#1540);
#1289=AXIS2_PLACEMENT_3D('',#1899,#1543,#1544);
#1290=AXIS2_PLACEMENT_3D('',#1902,#1547,#1548);
#1291=AXIS2_PLACEMENT_3D('',#1908,#1552,#1553);
#1292=AXIS2_PLACEMENT_3D('',#1910,#1555,#1556);
#1293=AXIS2_PLACEMENT_3D('',#1921,#1564,#1565);
#1294=AXIS2_PLACEMENT_3D('',#1923,#1567,#1568);
#1295=AXIS2_PLACEMENT_3D('',#1925,#1570,#1571);
#1296=AXIS2_PLACEMENT_3D('',#1926,#1572,#1573);
#1297=AXIS2_PLACEMENT_3D('',#1930,#1576,#1577);
#1298=AXIS2_PLACEMENT_3D('',#1932,#1579,#1580);
#1299=AXIS2_PLACEMENT_3D('',#1935,#1583,#1584);
#1300=AXIS2_PLACEMENT_3D('',#1936,#1585,#1586);
#1301=AXIS2_PLACEMENT_3D('',#1938,#1588,#1589);
#1302=AXIS2_PLACEMENT_3D('',#1942,#1591,#1592);
#1303=AXIS2_PLACEMENT_3D('',#1944,#1594,#1595);
#1304=AXIS2_PLACEMENT_3D('',#1946,#1597,#1598);
#1305=AXIS2_PLACEMENT_3D('',#1949,#1600,#1601);
#1306=AXIS2_PLACEMENT_3D('',#1950,#1602,#1603);
#1307=AXIS2_PLACEMENT_3D('',#1951,#1604,#1605);
#1308=AXIS2_PLACEMENT_3D('',#1952,#1606,#1607);
#1309=AXIS2_PLACEMENT_3D('',#1955,#1610,#1611);
#1310=AXIS2_PLACEMENT_3D('',#1956,#1612,#1613);
#1311=AXIS2_PLACEMENT_3D('',#1957,#1614,#1615);
#1312=AXIS2_PLACEMENT_3D('',#1958,#1616,#1617);
#1313=DIRECTION('axis',(0.,0.,1.));
#1314=DIRECTION('refdir',(1.,0.,0.));
#1315=DIRECTION('center_axis',(0.,-1.,0.));
#1316=DIRECTION('ref_axis',(-1.,0.,0.));
#1317=DIRECTION('center_axis',(2.22044604925031E-16,-1.,0.));
#1318=DIRECTION('ref_axis',(-1.,0.,0.));
#1319=DIRECTION('',(0.,-1.,0.));
#1320=DIRECTION('center_axis',(-2.22044604925031E-16,1.,0.));
#1321=DIRECTION('ref_axis',(-1.,0.,0.));
#1322=DIRECTION('center_axis',(0.,-1.,0.));
#1323=DIRECTION('ref_axis',(-1.,0.,0.));
#1324=DIRECTION('center_axis',(2.22044604925031E-16,-1.,0.));
#1325=DIRECTION('ref_axis',(-1.,0.,0.));
#1326=DIRECTION('',(0.,-1.,0.));
#1327=DIRECTION('center_axis',(-2.22044604925031E-16,1.,0.));
#1328=DIRECTION('ref_axis',(-1.,0.,0.));
#1329=DIRECTION('center_axis',(-1.,0.,0.));
#1330=DIRECTION('ref_axis',(0.,0.,-1.));
#1331=DIRECTION('',(0.,0.,1.));
#1332=DIRECTION('',(0.,-1.,0.));
#1333=DIRECTION('',(0.,0.,-1.));
#1334=DIRECTION('',(0.,-1.,0.));
#1335=DIRECTION('center_axis',(0.,0.,1.));
#1336=DIRECTION('ref_axis',(-1.,0.,0.));
#1337=DIRECTION('',(1.,0.,0.));
#1338=DIRECTION('',(-1.,-2.22044604925031E-16,0.));
#1339=DIRECTION('',(0.,-1.,0.));
#1340=DIRECTION('',(-1.,0.,0.));
#1341=DIRECTION('',(2.22044604925031E-16,-1.,0.));
#1342=DIRECTION('',(1.,2.22044604925031E-16,0.));
#1343=DIRECTION('',(0.,1.,0.));
#1344=DIRECTION('center_axis',(1.,0.,0.));
#1345=DIRECTION('ref_axis',(0.,0.,1.));
#1346=DIRECTION('',(0.,0.,1.));
#1347=DIRECTION('',(0.,-1.,0.));
#1348=DIRECTION('',(0.,0.,1.));
#1349=DIRECTION('center_axis',(0.,0.,-1.));
#1350=DIRECTION('ref_axis',(1.,0.,0.));
#1351=DIRECTION('',(-1.,0.,0.));
#1352=DIRECTION('',(0.,-1.,0.));
#1353=DIRECTION('',(-1.,-2.22044604925031E-16,0.));
#1354=DIRECTION('',(-2.22044604925031E-16,1.,0.));
#1355=DIRECTION('',(1.,0.,0.));
#1356=DIRECTION('',(1.,2.22044604925031E-16,0.));
#1357=DIRECTION('center_axis',(0.,-1.,0.));
#1358=DIRECTION('ref_axis',(0.,0.,-1.));
#1359=DIRECTION('',(0.,0.,-1.));
#1360=DIRECTION('center_axis',(0.,-1.,0.));
#1361=DIRECTION('ref_axis',(0.,0.,-1.));
#1362=DIRECTION('',(0.,0.,-1.));
#1363=DIRECTION('',(1.,0.,0.));
#1364=DIRECTION('',(0.,0.,1.));
#1365=DIRECTION('',(-1.,0.,0.));
#1366=DIRECTION('',(0.,0.,-1.));
#1367=DIRECTION('',(0.,0.,-1.));
#1368=DIRECTION('center_axis',(1.,0.,0.));
#1369=DIRECTION('ref_axis',(0.,0.,-1.));
#1370=DIRECTION('',(0.,0.,-1.));
#1371=DIRECTION('',(0.,1.,0.));
#1372=DIRECTION('',(0.,0.,1.));
#1373=DIRECTION('',(0.,-1.,0.));
#1374=DIRECTION('',(0.,0.,1.));
#1375=DIRECTION('',(0.,-1.,0.));
#1376=DIRECTION('center_axis',(1.,0.,0.));
#1377=DIRECTION('ref_axis',(0.,0.,-1.));
#1378=DIRECTION('',(0.,-1.,0.));
#1379=DIRECTION('',(0.,0.,-1.));
#1380=DIRECTION('center_axis',(2.22044604925031E-16,-1.,0.));
#1381=DIRECTION('ref_axis',(0.,0.,1.));
#1382=DIRECTION('',(0.,0.,1.));
#1383=DIRECTION('',(1.,2.22044604925031E-16,0.));
#1384=DIRECTION('center_axis',(-1.,0.,0.));
#1385=DIRECTION('ref_axis',(0.,0.707106781186548,-0.707106781186547));
#1386=DIRECTION('center_axis',(1.,0.,0.));
#1387=DIRECTION('ref_axis',(0.,0.707106781186548,-0.707106781186547));
#1388=DIRECTION('',(1.,0.,0.));
#1389=DIRECTION('center_axis',(-1.,0.,0.));
#1390=DIRECTION('ref_axis',(0.,0.707106781186548,-0.707106781186547));
#1391=DIRECTION('',(1.,2.22044604925031E-16,0.));
#1392=DIRECTION('center_axis',(1.,0.,0.));
#1393=DIRECTION('ref_axis',(0.,0.,-1.));
#1394=DIRECTION('',(0.,0.,-1.));
#1395=DIRECTION('center_axis',(-1.,0.,0.));
#1396=DIRECTION('ref_axis',(0.,0.707106781186548,0.707106781186547));
#1397=DIRECTION('',(0.,0.,1.));
#1398=DIRECTION('center_axis',(0.,1.,0.));
#1399=DIRECTION('ref_axis',(0.,0.,1.));
#1400=DIRECTION('',(0.,0.,1.));
#1401=DIRECTION('',(-1.,0.,0.));
#1402=DIRECTION('center_axis',(1.,0.,0.));
#1403=DIRECTION('ref_axis',(0.,0.707106781186548,0.707106781186547));
#1404=DIRECTION('center_axis',(1.,0.,0.));
#1405=DIRECTION('ref_axis',(0.,0.707106781186548,0.707106781186547));
#1406=DIRECTION('',(-1.,-2.22044604925031E-16,0.));
#1407=DIRECTION('center_axis',(-2.22044604925031E-16,1.,0.));
#1408=DIRECTION('ref_axis',(0.,0.,-1.));
#1409=DIRECTION('',(-1.,-2.22044604925031E-16,0.));
#1410=DIRECTION('',(0.,0.,-1.));
#1411=DIRECTION('',(-1.,-2.22044604925031E-16,0.));
#1412=DIRECTION('',(0.,0.,-1.));
#1413=DIRECTION('',(1.,0.,0.));
#1414=DIRECTION('',(0.,0.,-1.));
#1415=DIRECTION('',(-1.,0.,0.));
#1416=DIRECTION('',(0.,0.,1.));
#1417=DIRECTION('',(0.,0.,-1.));
#1418=DIRECTION('',(-1.,-2.22044604925031E-16,0.));
#1419=DIRECTION('center_axis',(-2.22044604925031E-16,1.,0.));
#1420=DIRECTION('ref_axis',(-0.707106781186548,-1.57009245868377E-16,0.707106781186548));
#1421=DIRECTION('',(0.,0.,-1.));
#1422=DIRECTION('center_axis',(-2.22044604925031E-16,1.,0.));
#1423=DIRECTION('ref_axis',(-0.707106781186548,-1.57009245868377E-16,-0.707106781186548));
#1424=DIRECTION('',(1.,2.22044604925031E-16,0.));
#1425=DIRECTION('center_axis',(2.22044604925031E-16,-1.,0.));
#1426=DIRECTION('ref_axis',(0.,0.,1.));
#1427=DIRECTION('',(1.,2.22044604925031E-16,0.));
#1428=DIRECTION('',(0.,0.,1.));
#1429=DIRECTION('',(-1.,-2.22044604925031E-16,0.));
#1430=DIRECTION('',(0.,0.,1.));
#1431=DIRECTION('',(-1.,-2.22044604925031E-16,0.));
#1432=DIRECTION('',(0.,0.,-1.));
#1433=DIRECTION('',(1.,2.22044604925031E-16,0.));
#1434=DIRECTION('center_axis',(2.22044604925031E-16,-1.,0.));
#1435=DIRECTION('ref_axis',(-0.707106781186548,-1.57009245868377E-16,-0.707106781186548));
#1436=DIRECTION('',(0.,0.,-1.));
#1437=DIRECTION('center_axis',(2.22044604925031E-16,-1.,0.));
#1438=DIRECTION('ref_axis',(-0.707106781186548,-1.57009245868377E-16,0.707106781186548));
#1439=DIRECTION('',(-1.,-2.22044604925031E-16,0.));
#1440=DIRECTION('',(0.,0.,-1.));
#1441=DIRECTION('',(1.,2.22044604925031E-16,0.));
#1442=DIRECTION('',(0.,0.,1.));
#1443=DIRECTION('',(0.,0.,1.));
#1444=DIRECTION('',(1.,2.22044604925031E-16,0.));
#1445=DIRECTION('',(0.,0.,-1.));
#1446=DIRECTION('',(-1.,-2.22044604925031E-16,0.));
#1447=DIRECTION('center_axis',(0.,0.,1.));
#1448=DIRECTION('ref_axis',(1.,0.,0.));
#1449=DIRECTION('',(2.22044604925031E-16,-1.,0.));
#1450=DIRECTION('',(-2.22044604925031E-16,1.,0.));
#1451=DIRECTION('center_axis',(1.,2.22044604925031E-16,0.));
#1452=DIRECTION('ref_axis',(0.,0.,1.));
#1453=DIRECTION('',(-2.22044604925031E-16,1.,0.));
#1454=DIRECTION('center_axis',(0.,0.,-1.));
#1455=DIRECTION('ref_axis',(2.22044604925031E-16,-1.,0.));
#1456=DIRECTION('',(-1.,-2.22044604925031E-16,0.));
#1457=DIRECTION('',(2.22044604925031E-16,-1.,0.));
#1458=DIRECTION('',(2.22044604925031E-16,-1.,0.));
#1459=DIRECTION('center_axis',(0.,0.,1.));
#1460=DIRECTION('ref_axis',(-1.,0.,0.));
#1461=DIRECTION('',(0.,1.,0.));
#1462=DIRECTION('',(0.,-1.,0.));
#1463=DIRECTION('',(1.,2.22044604925031E-16,0.));
#1464=DIRECTION('',(0.,1.,0.));
#1465=DIRECTION('',(1.,0.,0.));
#1466=DIRECTION('',(0.,1.,0.));
#1467=DIRECTION('center_axis',(-1.,-2.22044604925031E-16,0.));
#1468=DIRECTION('ref_axis',(0.,0.,1.));
#1469=DIRECTION('',(-2.22044604925031E-16,1.,0.));
#1470=DIRECTION('',(0.,0.,1.));
#1471=DIRECTION('',(-2.22044604925031E-16,1.,0.));
#1472=DIRECTION('',(2.22044604925031E-16,-1.,0.));
#1473=DIRECTION('',(0.,0.,-1.));
#1474=DIRECTION('center_axis',(0.,0.,1.));
#1475=DIRECTION('ref_axis',(-2.22044604925031E-16,1.,0.));
#1476=DIRECTION('',(-1.,-2.22044604925031E-16,0.));
#1477=DIRECTION('',(-2.22044604925031E-16,1.,0.));
#1478=DIRECTION('center_axis',(0.,0.,-1.));
#1479=DIRECTION('ref_axis',(-1.,0.,0.));
#1480=DIRECTION('',(0.,1.,0.));
#1481=DIRECTION('',(0.,-1.,0.));
#1482=DIRECTION('',(-1.,-2.22044604925031E-16,0.));
#1483=DIRECTION('center_axis',(-2.22044604925031E-16,1.,0.));
#1484=DIRECTION('ref_axis',(0.,0.,-1.));
#1485=DIRECTION('',(-1.,0.,0.));
#1486=DIRECTION('',(0.,0.,-1.));
#1487=DIRECTION('',(0.,0.,1.));
#1488=DIRECTION('',(1.,2.22044604925031E-16,0.));
#1489=DIRECTION('center_axis',(-2.22044604925031E-16,1.,0.));
#1490=DIRECTION('ref_axis',(-0.707106781186548,-1.57009245868377E-16,0.707106781186548));
#1491=DIRECTION('',(0.,0.,1.));
#1492=DIRECTION('center_axis',(-2.22044604925031E-16,1.,0.));
#1493=DIRECTION('ref_axis',(-0.707106781186548,-1.57009245868377E-16,-0.707106781186548));
#1494=DIRECTION('',(-1.,-2.22044604925031E-16,0.));
#1495=DIRECTION('',(0.,0.,1.));
#1496=DIRECTION('',(0.,0.,-1.));
#1497=DIRECTION('',(1.,2.22044604925031E-16,0.));
#1498=DIRECTION('',(1.,2.22044604925031E-16,0.));
#1499=DIRECTION('',(0.,0.,1.));
#1500=DIRECTION('',(-1.,-2.22044604925031E-16,0.));
#1501=DIRECTION('',(0.,0.,-1.));
#1502=DIRECTION('center_axis',(-1.,-2.22044604925031E-16,0.));
#1503=DIRECTION('ref_axis',(0.,0.,-1.));
#1504=DIRECTION('',(2.22044604925031E-16,-1.,0.));
#1505=DIRECTION('',(0.,0.,1.));
#1506=DIRECTION('',(-2.22044604925031E-16,1.,0.));
#1507=DIRECTION('center_axis',(0.,0.,-1.));
#1508=DIRECTION('ref_axis',(-1.,0.,0.));
#1509=DIRECTION('',(-2.22044604925031E-16,1.,0.));
#1510=DIRECTION('',(-1.,0.,0.));
#1511=DIRECTION('center_axis',(0.,0.,1.));
#1512=DIRECTION('ref_axis',(-1.,0.,0.));
#1513=DIRECTION('',(0.,0.,1.));
#1514=DIRECTION('center_axis',(0.,0.,-1.));
#1515=DIRECTION('ref_axis',(-1.,0.,0.));
#1516=DIRECTION('center_axis',(0.,0.,1.));
#1517=DIRECTION('ref_axis',(-1.,0.,0.));
#1518=DIRECTION('center_axis',(0.,0.,1.));
#1519=DIRECTION('ref_axis',(-1.,0.,0.));
#1520=DIRECTION('',(0.,0.,1.));
#1521=DIRECTION('center_axis',(0.,0.,1.));
#1522=DIRECTION('ref_axis',(1.,0.,0.));
#1523=DIRECTION('',(1.,0.,0.));
#1524=DIRECTION('',(2.22044604925031E-16,-1.,0.));
#1525=DIRECTION('center_axis',(0.,0.,1.));
#1526=DIRECTION('ref_axis',(-1.,-2.22044604925031E-16,0.));
#1527=DIRECTION('',(0.,-1.,0.));
#1528=DIRECTION('center_axis',(0.,0.,-1.));
#1529=DIRECTION('ref_axis',(-1.,0.,0.));
#1530=DIRECTION('',(2.22044604925031E-16,-1.,0.));
#1531=DIRECTION('center_axis',(-1.,-2.22044604925031E-16,0.));
#1532=DIRECTION('ref_axis',(0.,0.,-1.));
#1533=DIRECTION('center_axis',(0.,0.,-1.));
#1534=DIRECTION('ref_axis',(1.,2.22044604925031E-16,0.));
#1535=DIRECTION('',(0.,1.,0.));
#1536=DIRECTION('center_axis',(1.,2.22044604925031E-16,0.));
#1537=DIRECTION('ref_axis',(0.,0.,1.));
#1538=DIRECTION('',(0.,0.,-1.));
#1539=DIRECTION('center_axis',(2.22044604925031E-16,-1.,0.));
#1540=DIRECTION('ref_axis',(0.,0.,1.));
#1541=DIRECTION('',(-1.,-2.22044604925031E-16,0.));
#1542=DIRECTION('',(0.,0.,1.));
#1543=DIRECTION('center_axis',(1.,0.,0.));
#1544=DIRECTION('ref_axis',(0.,1.,0.));
#1545=DIRECTION('',(0.,0.,1.));
#1546=DIRECTION('',(0.,-1.,0.));
#1547=DIRECTION('center_axis',(-2.22044604925031E-16,1.,0.));
#1548=DIRECTION('ref_axis',(0.,0.,-1.));
#1549=DIRECTION('',(-1.,-2.22044604925031E-16,0.));
#1550=DIRECTION('',(0.,0.,-1.));
#1551=DIRECTION('',(-1.,-2.22044604925031E-16,0.));
#1552=DIRECTION('center_axis',(0.,0.,1.));
#1553=DIRECTION('ref_axis',(-2.22044604925031E-16,1.,0.));
#1554=DIRECTION('',(-2.22044604925031E-16,1.,0.));
#1555=DIRECTION('center_axis',(-1.,0.,0.));
#1556=DIRECTION('ref_axis',(0.,0.,1.));
#1557=DIRECTION('',(0.,1.,0.));
#1558=DIRECTION('',(0.,1.,0.));
#1559=DIRECTION('',(0.,0.,-1.));
#1560=DIRECTION('',(0.,1.,0.));
#1561=DIRECTION('',(0.,0.,1.));
#1562=DIRECTION('',(0.,-1.,0.));
#1563=DIRECTION('',(0.,-1.,0.));
#1564=DIRECTION('center_axis',(0.,0.,-1.));
#1565=DIRECTION('ref_axis',(-1.,0.,0.));
#1566=DIRECTION('',(-1.,0.,0.));
#1567=DIRECTION('center_axis',(0.,0.,-1.));
#1568=DIRECTION('ref_axis',(2.22044604925031E-16,-1.,0.));
#1569=DIRECTION('',(2.22044604925031E-16,-1.,0.));
#1570=DIRECTION('center_axis',(0.,1.,0.));
#1571=DIRECTION('ref_axis',(0.,0.,1.));
#1572=DIRECTION('center_axis',(0.,0.,-1.));
#1573=DIRECTION('ref_axis',(2.22044604925031E-16,-1.,0.));
#1574=DIRECTION('',(-2.22044604925031E-16,1.,0.));
#1575=DIRECTION('',(-1.,-2.22044604925031E-16,0.));
#1576=DIRECTION('center_axis',(0.,0.,1.));
#1577=DIRECTION('ref_axis',(-2.22044604925031E-16,1.,0.));
#1578=DIRECTION('',(2.22044604925031E-16,-1.,0.));
#1579=DIRECTION('center_axis',(-2.22044604925031E-16,1.,0.));
#1580=DIRECTION('ref_axis',(-0.707106781186548,-1.57009245868377E-16,-0.707106781186548));
#1581=DIRECTION('',(-2.22044604925031E-16,1.,0.));
#1582=DIRECTION('',(2.22044604925031E-16,-1.,0.));
#1583=DIRECTION('center_axis',(0.,0.,-1.));
#1584=DIRECTION('ref_axis',(2.22044604925031E-16,-1.,0.));
#1585=DIRECTION('center_axis',(2.22044604925031E-16,-1.,0.));
#1586=DIRECTION('ref_axis',(-0.707106781186548,-1.57009245868377E-16,0.707106781186548));
#1587=DIRECTION('',(-2.22044604925031E-16,1.,0.));
#1588=DIRECTION('center_axis',(2.22044604925031E-16,-1.,0.));
#1589=DIRECTION('ref_axis',(-0.707106781186548,-1.57009245868377E-16,0.707106781186548));
#1590=DIRECTION('',(2.22044604925031E-16,-1.,0.));
#1591=DIRECTION('center_axis',(2.22044604925031E-16,-1.,0.));
#1592=DIRECTION('ref_axis',(-0.707106781186548,-1.57009245868377E-16,0.707106781186548));
#1593=DIRECTION('',(-2.22044604925031E-16,1.,0.));
#1594=DIRECTION('center_axis',(0.,0.,1.));
#1595=DIRECTION('ref_axis',(-2.22044604925031E-16,1.,0.));
#1596=DIRECTION('',(1.,2.22044604925031E-16,0.));
#1597=DIRECTION('center_axis',(-2.22044604925031E-16,1.,0.));
#1598=DIRECTION('ref_axis',(-0.707106781186548,-1.57009245868377E-16,-0.707106781186548));
#1599=DIRECTION('',(2.22044604925031E-16,-1.,0.));
#1600=DIRECTION('center_axis',(2.22044604925031E-16,-1.,0.));
#1601=DIRECTION('ref_axis',(-0.707106781186548,-1.57009245868377E-16,-0.707106781186548));
#1602=DIRECTION('center_axis',(1.,2.22044604925031E-16,0.));
#1603=DIRECTION('ref_axis',(0.,0.,-1.));
#1604=DIRECTION('center_axis',(1.,2.22044604925031E-16,0.));
#1605=DIRECTION('ref_axis',(0.,0.,-1.));
#1606=DIRECTION('center_axis',(2.22044604925031E-16,-1.,0.));
#1607=DIRECTION('ref_axis',(0.,0.,1.));
#1608=DIRECTION('',(0.,0.,1.));
#1609=DIRECTION('',(0.,0.,1.));
#1610=DIRECTION('center_axis',(-1.,-2.22044604925031E-16,0.));
#1611=DIRECTION('ref_axis',(0.,0.,-1.));
#1612=DIRECTION('center_axis',(-1.,-2.22044604925031E-16,0.));
#1613=DIRECTION('ref_axis',(0.,0.,-1.));
#1614=DIRECTION('center_axis',(1.,2.22044604925031E-16,0.));
#1615=DIRECTION('ref_axis',(0.,0.,-1.));
#1616=DIRECTION('center_axis',(-1.,-2.22044604925031E-16,0.));
#1617=DIRECTION('ref_axis',(-2.22044604925031E-16,1.,0.));
#1618=CARTESIAN_POINT('',(0.,0.,0.));
#1619=CARTESIAN_POINT('Origin',(44.2274021995868,110.500001572072,10.3628685199435));
#1620=CARTESIAN_POINT('',(46.7774021995868,110.500001572072,10.3628685199435));
#1621=CARTESIAN_POINT('Origin',(44.2274021995868,110.500001572072,10.3628685199435));
#1622=CARTESIAN_POINT('',(46.7774021995868,105.500001572073,10.3628685199435));
#1623=CARTESIAN_POINT('',(46.7774021995868,110.500001572072,10.3628685199435));
#1624=CARTESIAN_POINT('Origin',(44.2274021995868,105.500001572073,10.3628685199435));
#1625=CARTESIAN_POINT('Origin',(44.2274021995868,110.500001572072,0.191079650928447));
#1626=CARTESIAN_POINT('',(46.7774021995868,110.500001572072,0.191079650928447));
#1627=CARTESIAN_POINT('Origin',(44.2274021995868,110.500001572072,0.191079650928447));
#1628=CARTESIAN_POINT('',(46.7774021995868,105.500001572073,0.191079650928447));
#1629=CARTESIAN_POINT('',(46.7774021995868,110.500001572072,0.191079650928448));
#1630=CARTESIAN_POINT('Origin',(44.2274021995868,105.500001572073,0.191079650928447));
#1631=CARTESIAN_POINT('Origin',(37.6774021995868,110.500001572072,-11.3589203490716));
#1632=CARTESIAN_POINT('',(37.6774021995868,102.500001572072,-30.7589203490716));
#1633=CARTESIAN_POINT('',(37.6774021995868,102.500001572072,-11.3589203490716));
#1634=CARTESIAN_POINT('',(37.6774021995868,102.500001572072,-16.2089203490716));
#1635=CARTESIAN_POINT('',(37.6774021995868,110.500001572072,-30.7589203490716));
#1636=CARTESIAN_POINT('',(37.6774021995868,110.500001572072,-30.7589203490716));
#1637=CARTESIAN_POINT('',(37.6774021995868,110.500001572072,-11.3589203490716));
#1638=CARTESIAN_POINT('',(37.6774021995868,110.500001572072,11.2910794460375));
#1639=CARTESIAN_POINT('',(37.6774021995868,110.500001572072,-11.3589203490716));
#1640=CARTESIAN_POINT('Origin',(50.7774021995868,110.500001572072,-11.3589203490716));
#1641=CARTESIAN_POINT('',(38.7274014135506,102.500001572072,-11.3589203490716));
#1642=CARTESIAN_POINT('',(44.0024018065687,102.500001572072,-11.3589203490716));
#1643=CARTESIAN_POINT('',(50.7774021995868,110.500001572072,-11.3589203490716));
#1644=CARTESIAN_POINT('',(51.7524025926049,110.500001572072,-11.3589203490716));
#1645=CARTESIAN_POINT('',(50.7774021995868,100.500001572072,-11.3589203490716));
#1646=CARTESIAN_POINT('',(50.7774021995868,110.500001572072,-11.3589203490716));
#1647=CARTESIAN_POINT('',(48.7274029856231,100.500001572072,-11.3589203490716));
#1648=CARTESIAN_POINT('',(50.7774021995868,100.500001572072,-11.3589203490716));
#1649=CARTESIAN_POINT('',(48.7274029856231,105.500001572073,-11.3589203490716));
#1650=CARTESIAN_POINT('',(48.7274029856231,83.0000015720725,-11.3589203490716));
#1651=CARTESIAN_POINT('',(38.7274029856231,105.500001572073,-11.3589203490716));
#1652=CARTESIAN_POINT('',(51.7524025926049,105.500001572073,-11.3589203490716));
#1653=CARTESIAN_POINT('',(38.7274014135506,55.5000015720725,-11.3589203490716));
#1654=CARTESIAN_POINT('Origin',(50.7774021995868,110.500001572072,-30.7589203490716));
#1655=CARTESIAN_POINT('',(50.7774021995868,110.500001572072,-30.7589203490716));
#1656=CARTESIAN_POINT('',(50.7774021995868,110.500001572072,1.59107944603748));
#1657=CARTESIAN_POINT('',(50.7774021995868,100.500001572072,-30.7589203490716));
#1658=CARTESIAN_POINT('',(50.7774021995868,110.500001572072,-30.7589203490716));
#1659=CARTESIAN_POINT('',(50.7774021995868,100.500001572072,-30.7589203490716));
#1660=CARTESIAN_POINT('Origin',(37.6774021995868,110.500001572072,-30.7589203490716));
#1661=CARTESIAN_POINT('',(38.7274014135506,102.500001572072,-30.7589203490716));
#1662=CARTESIAN_POINT('',(37.4524018065687,102.500001572072,-30.7589203490716));
#1663=CARTESIAN_POINT('',(38.7274029856231,105.500001572073,-30.7589203490716));
#1664=CARTESIAN_POINT('',(38.7274014135506,55.5000015720725,-30.7589203490716));
#1665=CARTESIAN_POINT('',(48.7274029856231,105.500001572073,-30.7589203490716));
#1666=CARTESIAN_POINT('',(45.202402592605,105.500001572073,-30.7589203490715));
#1667=CARTESIAN_POINT('',(48.7274029856231,100.500001572072,-30.7589203490716));
#1668=CARTESIAN_POINT('',(48.7274029856231,83.0000015720725,-30.7589203490716));
#1669=CARTESIAN_POINT('',(37.6774021995868,100.500001572072,-30.7589203490716));
#1670=CARTESIAN_POINT('',(45.202402592605,110.500001572072,-30.7589203490716));
#1671=CARTESIAN_POINT('Origin',(44.2274021995868,100.500001572072,-21.0589203490716));
#1672=CARTESIAN_POINT('',(48.7274029856231,100.500001572072,-21.0589205539625));
#1673=CARTESIAN_POINT('Origin',(37.2274014135506,102.500001572072,-21.0589203490716));
#1674=CARTESIAN_POINT('',(38.7274014135506,102.500001572072,25.9410792411465));
#1675=CARTESIAN_POINT('',(38.7274014135506,102.500001572072,-63.5589203490716));
#1676=CARTESIAN_POINT('',(35.7274014135506,102.500001572072,25.9410792411465));
#1677=CARTESIAN_POINT('',(36.4774021995868,102.500001572072,25.9410792411465));
#1678=CARTESIAN_POINT('',(35.7274014135506,102.500001572072,-76.0589203490716));
#1679=CARTESIAN_POINT('',(35.7274014135506,102.500001572072,21.4410796509284));
#1680=CARTESIAN_POINT('',(38.7274014135506,102.500001572072,-76.0589203490716));
#1681=CARTESIAN_POINT('',(38.7274014135506,102.500001572072,-76.0589203490716));
#1682=CARTESIAN_POINT('',(38.7274029856231,102.500001572072,-71.0589207588535));
#1683=CARTESIAN_POINT('',(38.7274029856231,102.500001572072,-69.8089205539625));
#1684=CARTESIAN_POINT('',(38.7274014135506,102.500001572072,-63.5589203490716));
#1685=CARTESIAN_POINT('Origin',(38.7274014135506,0.500001572072515,21.4410796509284));
#1686=CARTESIAN_POINT('',(38.7274029856231,105.500001572073,28.9410792411465));
#1687=CARTESIAN_POINT('',(38.7274029856231,105.500001572073,-18.5589207588535));
#1688=CARTESIAN_POINT('',(38.7274029856231,5.50000082701445,28.9410792411465));
#1689=CARTESIAN_POINT('',(38.7274029856231,105.500001199543,28.9410792411465));
#1690=CARTESIAN_POINT('',(38.7274029856231,5.50000157207251,-71.0589207588535));
#1691=CARTESIAN_POINT('',(38.7274014135506,5.50000157207251,-17.3089205539625));
#1692=CARTESIAN_POINT('',(38.7274014135506,8.50000157207251,-71.0589207588535));
#1693=CARTESIAN_POINT('',(38.7274029856231,5.50000157207251,-71.0589207588535));
#1694=CARTESIAN_POINT('',(38.7274029856231,8.50000157207251,25.9410792411465));
#1695=CARTESIAN_POINT('',(38.7274014135506,8.50000157207251,21.4410796509284));
#1696=CARTESIAN_POINT('',(38.7274029856231,5.50000082701445,25.9410792411465));
#1697=CARTESIAN_POINT('Origin',(38.7274014135506,0.500001572072515,21.4410796509284));
#1698=CARTESIAN_POINT('',(38.7274029856231,105.500001572073,-71.0589207588535));
#1699=CARTESIAN_POINT('',(38.7274029856231,5.50000157207251,-71.0589207588535));
#1700=CARTESIAN_POINT('',(38.7274029856231,105.500001572073,-18.5589207588535));
#1701=CARTESIAN_POINT('Origin',(52.7274029856231,105.500001572073,-71.0589207588535));
#1702=CARTESIAN_POINT('',(48.7274029856231,105.500001572073,28.9410792411465));
#1703=CARTESIAN_POINT('',(48.7274029856231,105.500001572073,-71.0589207588535));
#1704=CARTESIAN_POINT('',(47.7274029856231,105.500001572073,28.9410792411465));
#1705=CARTESIAN_POINT('Origin',(38.7274014135506,110.500001572072,-55.5589203490716));
#1706=CARTESIAN_POINT('',(35.7274014135506,110.500001572072,-63.5589203490716));
#1707=CARTESIAN_POINT('',(35.7274014135506,118.500001572072,-55.5589203490716));
#1708=CARTESIAN_POINT('Origin',(35.7274014135506,110.500001572072,-55.5589203490716));
#1709=CARTESIAN_POINT('',(39.7274014135506,118.500001572072,-55.5589203490716));
#1710=CARTESIAN_POINT('',(38.7274014135506,118.500001572072,-55.5589203490716));
#1711=CARTESIAN_POINT('',(39.7274014135506,110.500001572072,-63.5589203490716));
#1712=CARTESIAN_POINT('Origin',(39.7274014135506,110.500001572072,-55.5589203490716));
#1713=CARTESIAN_POINT('',(46.2274021995868,110.500001572072,-63.5589203490716));
#1714=CARTESIAN_POINT('Origin',(39.7274014135506,110.500001572072,-38.5589203490716));
#1715=CARTESIAN_POINT('',(39.7274014135506,118.500001572072,-46.5589203490715));
#1716=CARTESIAN_POINT('',(39.7274014135506,118.500001572072,-63.5589203490716));
#1717=CARTESIAN_POINT('',(39.7274014135506,110.500001572072,-38.5589203490716));
#1718=CARTESIAN_POINT('Origin',(39.7274014135506,110.500001572072,-46.5589203490715));
#1719=CARTESIAN_POINT('',(39.7274014135506,110.500001572072,-2.30892055396252));
#1720=CARTESIAN_POINT('Origin',(37.7274014135506,118.500001572072,-51.0589203490716));
#1721=CARTESIAN_POINT('',(35.7274014135506,118.500001572072,-46.5589203490715));
#1722=CARTESIAN_POINT('',(35.7274014135506,118.500001572072,-38.5589203490716));
#1723=CARTESIAN_POINT('',(36.7274014135506,118.500001572072,-46.5589203490715));
#1724=CARTESIAN_POINT('Origin',(36.7274014135506,110.500001572072,-46.5589203490715));
#1725=CARTESIAN_POINT('',(35.7274014135506,110.500001572072,-38.5589203490716));
#1726=CARTESIAN_POINT('Origin',(35.7274014135506,110.500001572072,-46.5589203490715));
#1727=CARTESIAN_POINT('',(44.2274021995868,110.500001572072,-38.5589203490716));
#1728=CARTESIAN_POINT('Origin',(52.7274029856231,110.500001572072,33.9410792411465));
#1729=CARTESIAN_POINT('',(52.7274029856231,110.500001572072,33.9410792411465));
#1730=CARTESIAN_POINT('',(-62.272597014377,110.500002391636,33.9410800607104));
#1731=CARTESIAN_POINT('',(52.7274029856231,110.500001572072,33.9410792411465));
#1732=CARTESIAN_POINT('',(52.7274029856231,110.500001572072,-76.0589207588535));
#1733=CARTESIAN_POINT('',(52.7274029856231,110.500001572072,33.9410792411465));
#1734=CARTESIAN_POINT('',(-62.272597014377,110.500002391636,-76.0589207588535));
#1735=CARTESIAN_POINT('',(52.7274029856231,110.500001572072,-76.0589207588535));
#1736=CARTESIAN_POINT('',(-62.272597014377,110.500002391636,-76.0589207588535));
#1737=CARTESIAN_POINT('',(-56.2725985864494,110.500001572072,-7.05892034907154));
#1738=CARTESIAN_POINT('',(-49.2725985864495,110.500001572072,-7.05892034907154));
#1739=CARTESIAN_POINT('',(-49.2725985864495,110.500001572072,-7.05892034907154));
#1740=CARTESIAN_POINT('',(-56.2725985864494,110.500001572072,-35.0589203490716));
#1741=CARTESIAN_POINT('',(-56.2725985864494,110.500001572072,30.9410794460375));
#1742=CARTESIAN_POINT('',(-49.2725985864495,110.500001572072,-35.0589203490716));
#1743=CARTESIAN_POINT('',(-56.2725985864494,110.500001572072,-35.0589203490716));
#1744=CARTESIAN_POINT('',(-49.2725985864495,110.500001572072,-18.0589205539625));
#1745=CARTESIAN_POINT('',(35.7274014135506,110.500001572072,21.4410796509285));
#1746=CARTESIAN_POINT('',(35.7274014135506,110.500001572072,-9.80892055396252));
#1747=CARTESIAN_POINT('',(-15.7725985864495,110.500001572072,21.4410796509285));
#1748=CARTESIAN_POINT('',(39.7274021995868,110.500001572072,21.4410796509285));
#1749=CARTESIAN_POINT('',(-38.2725985864495,110.500001572072,-1.05892034907155));
#1750=CARTESIAN_POINT('Origin',(-15.7725985864495,110.500001572072,-1.05892034907155));
#1751=CARTESIAN_POINT('',(-38.2725985864495,110.500001572072,-41.0589203490716));
#1752=CARTESIAN_POINT('',(-38.2725985864495,110.500001572072,22.6910794460375));
#1753=CARTESIAN_POINT('',(-15.7725985864495,110.500001572072,-63.5589203490716));
#1754=CARTESIAN_POINT('Origin',(-15.7725985864495,110.500001572072,-41.0589203490716));
#1755=CARTESIAN_POINT('',(7.22740219958681,110.500001572072,-63.5589203490716));
#1756=CARTESIAN_POINT('Origin',(52.7274029856231,105.750001572073,-71.0589207588535));
#1757=CARTESIAN_POINT('',(-62.272597014377,105.750001572072,27.9410796509285));
#1758=CARTESIAN_POINT('',(-38.2725985864495,105.750001572072,27.9410796509285));
#1759=CARTESIAN_POINT('',(1.72740219958681,105.750001572073,27.9410796509285));
#1760=CARTESIAN_POINT('',(-62.272597014377,105.750001572072,-70.0589203490716));
#1761=CARTESIAN_POINT('',(-62.2725970143769,105.750001572072,-46.0589207588535));
#1762=CARTESIAN_POINT('',(-38.2725985864495,105.750001572072,-70.0589203490716));
#1763=CARTESIAN_POINT('',(1.72740219958681,105.750001572073,-70.0589203490716));
#1764=CARTESIAN_POINT('',(-38.2725985864495,105.750001572072,-76.0589207588535));
#1765=CARTESIAN_POINT('',(-38.2725985864495,105.750001572072,-73.5589207588535));
#1766=CARTESIAN_POINT('',(35.7274014135506,105.750001572073,-76.0589203490716));
#1767=CARTESIAN_POINT('',(52.7274029856231,105.750001572073,-76.0589207588535));
#1768=CARTESIAN_POINT('',(35.7274014135506,105.750001572073,-63.5589203490716));
#1769=CARTESIAN_POINT('',(35.7274014135506,105.750001572073,-67.3089205539625));
#1770=CARTESIAN_POINT('',(-15.7725985864495,105.750001572072,-63.5589203490716));
#1771=CARTESIAN_POINT('',(7.2274021995868,105.750001572073,-63.5589203490716));
#1772=CARTESIAN_POINT('',(-38.2725985864495,105.750001572072,-41.0589203490716));
#1773=CARTESIAN_POINT('Origin',(-15.7725985864495,105.750001572072,-41.0589203490716));
#1774=CARTESIAN_POINT('',(-38.2725985864495,105.750001572072,-1.05892034907155));
#1775=CARTESIAN_POINT('',(-38.2725985864495,105.750001572072,-29.8089205539625));
#1776=CARTESIAN_POINT('',(-15.7725985864495,105.750001572072,21.4410796509285));
#1777=CARTESIAN_POINT('Origin',(-15.7725985864495,105.750001572072,-1.05892034907155));
#1778=CARTESIAN_POINT('',(35.7274014135506,105.750001572073,21.4410796509285));
#1779=CARTESIAN_POINT('',(39.7274021995868,105.750001572073,21.4410796509284));
#1780=CARTESIAN_POINT('',(35.7274029856231,105.750001572073,33.9410800607104));
#1781=CARTESIAN_POINT('',(35.7274029856231,105.750001572073,-18.5589207588535));
#1782=CARTESIAN_POINT('',(-38.2725985864495,105.750001572072,33.9410800607104));
#1783=CARTESIAN_POINT('',(52.7274029856231,105.750001572073,33.9410792411465));
#1784=CARTESIAN_POINT('',(-38.2725985864495,105.750001572072,-21.5589205539625));
#1785=CARTESIAN_POINT('',(-49.2725985864495,105.750001572072,-35.0589203490716));
#1786=CARTESIAN_POINT('',(-49.2725985864495,105.750001572072,-7.05892034907154));
#1787=CARTESIAN_POINT('',(-49.2725985864495,105.750001572072,-70.5589205539625));
#1788=CARTESIAN_POINT('',(-56.2725985864494,105.750001572072,-35.0589203490716));
#1789=CARTESIAN_POINT('',(-0.0225978004131952,105.750001572073,-35.0589203490716));
#1790=CARTESIAN_POINT('',(-56.2725985864494,105.750001572072,-7.05892034907154));
#1791=CARTESIAN_POINT('',(-56.2725985864494,105.750001572072,-21.5589205539625));
#1792=CARTESIAN_POINT('',(-0.0225978004131952,105.750001572073,-7.05892034907154));
#1793=CARTESIAN_POINT('Origin',(-52.7725985864495,108.000001572072,-35.0589203490716));
#1794=CARTESIAN_POINT('',(-49.2725985864495,109.250001572072,-35.0589203490716));
#1795=CARTESIAN_POINT('',(-56.2725985864494,109.250001572072,-35.0589203490716));
#1796=CARTESIAN_POINT('Origin',(-49.2725985864495,110.500001572072,-70.0589203490716));
#1797=CARTESIAN_POINT('',(-49.2725985864495,109.250001572072,-7.05892034907155));
#1798=CARTESIAN_POINT('Origin',(52.7274029856231,110.500001572072,-76.0589207588535));
#1799=CARTESIAN_POINT('',(52.7274029856231,0.500001572072533,-76.0589207588535));
#1800=CARTESIAN_POINT('',(-62.2725970143769,0.500000752508623,-76.0589215784174));
#1801=CARTESIAN_POINT('',(52.7274029856231,0.500001572072533,-76.0589207588535));
#1802=CARTESIAN_POINT('',(-62.272597014377,105.500001572072,-76.0589207588535));
#1803=CARTESIAN_POINT('',(52.7274029856231,110.500001572072,-76.0589207588535));
#1804=CARTESIAN_POINT('',(-44.2725978004132,55.5000016575922,-76.0589207588535));
#1805=CARTESIAN_POINT('Origin',(-50.2725978004132,55.5000016575922,-76.0589207588535));
#1806=CARTESIAN_POINT('',(35.7274014135506,108.000001572072,-76.0589207588535));
#1807=CARTESIAN_POINT('',(-38.2725985864494,5.2500015720725,-76.0589207588535));
#1808=CARTESIAN_POINT('',(-38.2725985864494,58.0000015720725,-76.0589207588535));
#1809=CARTESIAN_POINT('',(35.7274014135506,5.25000157207251,-76.0589203490716));
#1810=CARTESIAN_POINT('',(52.7274029856231,5.25000157207252,-76.0589207588535));
#1811=CARTESIAN_POINT('',(35.7274014135506,8.50000157207251,-76.0589203490716));
#1812=CARTESIAN_POINT('',(35.7274014135506,58.0000015720725,-76.0589207588535));
#1813=CARTESIAN_POINT('',(38.7274014135506,8.50000157207251,-76.0589203490716));
#1814=CARTESIAN_POINT('',(35.7274014135506,8.50000157207251,-76.0589203490716));
#1815=CARTESIAN_POINT('',(38.7274029856231,58.0000015720725,-76.0589207588535));
#1816=CARTESIAN_POINT('Origin',(-62.2725970143769,3.00000078976153,-21.0589207588535));
#1817=CARTESIAN_POINT('',(-62.2725970143769,0.500000752508623,33.9410800607104));
#1818=CARTESIAN_POINT('',(-62.2725970143769,5.50000082701443,33.9410800607104));
#1819=CARTESIAN_POINT('',(-62.2725970143769,0.500000752508623,33.9410800607104));
#1820=CARTESIAN_POINT('',(-62.2725970143769,5.25000157207249,-70.0589203490716));
#1821=CARTESIAN_POINT('',(-62.2725970143769,54.250001180917,-70.0589203490716));
#1822=CARTESIAN_POINT('',(-62.2725970143769,5.25000157207249,27.9410796509285));
#1823=CARTESIAN_POINT('',(-62.2725970143769,4.250001180917,27.9410796509285));
#1824=CARTESIAN_POINT('',(-62.2725970143769,5.25000157207249,3.94107924114652));
#1825=CARTESIAN_POINT('Origin',(52.7274029856231,0.500001572072533,33.9410792411465));
#1826=CARTESIAN_POINT('',(52.7274029856231,0.500001572072533,33.9410792411465));
#1827=CARTESIAN_POINT('',(52.7274029856231,0.500001572072533,33.9410792411465));
#1828=CARTESIAN_POINT('',(52.7274029856231,0.500001572072533,33.9410792411465));
#1829=CARTESIAN_POINT('',(-44.2725978004132,55.5000016575922,33.9410792411465));
#1830=CARTESIAN_POINT('Origin',(-50.2725978004132,55.5000016575922,33.9410792411465));
#1831=CARTESIAN_POINT('',(-38.2725985864494,5.2500015720725,33.9410800607104));
#1832=CARTESIAN_POINT('',(-38.2725985864495,53.0000015720725,33.9410792411465));
#1833=CARTESIAN_POINT('',(35.7274029856231,5.25000082701446,33.9410800607104));
#1834=CARTESIAN_POINT('',(35.7274029856231,53.0000015720725,33.9410792411465));
#1835=CARTESIAN_POINT('',(52.7274029856231,5.25000157207251,33.9410792411465));
#1836=CARTESIAN_POINT('Origin',(52.7274029856231,5.25000157207251,28.9410792411465));
#1837=CARTESIAN_POINT('',(-38.2725985864494,5.2500015720725,27.9410796509285));
#1838=CARTESIAN_POINT('',(-52.7725985864494,5.25000157207247,27.9410796509285));
#1839=CARTESIAN_POINT('',(-38.2725985864494,5.2500015720725,28.4410794460375));
#1840=CARTESIAN_POINT('',(35.7274014135506,5.25000157207251,21.4410796509284));
#1841=CARTESIAN_POINT('',(35.7274029856231,5.25000157207251,31.4410792411465));
#1842=CARTESIAN_POINT('',(-15.7725985864494,5.25000157207249,21.4410796509285));
#1843=CARTESIAN_POINT('',(39.7274021995868,5.25000157207252,21.4410796509285));
#1844=CARTESIAN_POINT('',(-38.2725985864494,5.2500015720725,-1.05892034907155));
#1845=CARTESIAN_POINT('Origin',(-15.7725985864494,5.2500015720725,-1.05892034907155));
#1846=CARTESIAN_POINT('',(-38.2725985864494,5.2500015720725,-41.0589203490716));
#1847=CARTESIAN_POINT('',(-38.2725985864494,5.2500015720725,20.1910794460375));
#1848=CARTESIAN_POINT('',(-15.7725985864494,5.25000157207249,-63.5589203490716));
#1849=CARTESIAN_POINT('Origin',(-15.7725985864494,5.2500015720725,-41.0589203490716));
#1850=CARTESIAN_POINT('',(35.7274014135506,5.25000157207251,-63.5589203490716));
#1851=CARTESIAN_POINT('',(7.22740219958682,5.25000157207251,-63.5589203490716));
#1852=CARTESIAN_POINT('',(35.7274014135506,5.25000157207251,-17.3089205539625));
#1853=CARTESIAN_POINT('',(-38.2725985864494,5.2500015720725,-70.0589203490716));
#1854=CARTESIAN_POINT('',(-38.2725985864494,5.2500015720725,-23.5589207588535));
#1855=CARTESIAN_POINT('',(-1.77259780041317,5.25000157207251,-70.0589203490716));
#1856=CARTESIAN_POINT('',(-56.2725985864494,5.25000157207248,-7.05892034907154));
#1857=CARTESIAN_POINT('',(-49.2725985864494,5.25000157207248,-7.05892034907154));
#1858=CARTESIAN_POINT('',(-0.0225978004131602,5.2500015720725,-7.05892034907154));
#1859=CARTESIAN_POINT('',(-56.2725985864494,5.25000157207248,-35.0589203490715));
#1860=CARTESIAN_POINT('',(-56.2725985864494,5.2500015720725,28.4410794460375));
#1861=CARTESIAN_POINT('',(-49.2725985864494,5.25000157207248,-35.0589203490715));
#1862=CARTESIAN_POINT('',(-0.0225978004131602,5.2500015720725,-35.0589203490716));
#1863=CARTESIAN_POINT('',(-49.2725985864494,5.2500015720725,-20.5589205539625));
#1864=CARTESIAN_POINT('Origin',(-56.2725985864494,110.500001572072,27.9410796509285));
#1865=CARTESIAN_POINT('',(-56.2725985864494,0.500001572072497,-7.05892034907154));
#1866=CARTESIAN_POINT('',(-56.2725985864494,56.7500015720725,-7.05892034907154));
#1867=CARTESIAN_POINT('',(-56.2725985864494,0.500001572072497,-35.0589203490716));
#1868=CARTESIAN_POINT('',(-56.2725985864494,0.500001572072497,-24.0589205539625));
#1869=CARTESIAN_POINT('',(-56.2725985864494,56.7500015720725,-35.0589203490716));
#1870=CARTESIAN_POINT('Origin',(-52.7725985864494,3.00000157207249,-7.05892034907154));
#1871=CARTESIAN_POINT('',(-49.2725985864494,0.500001572072497,-7.05892034907154));
#1872=CARTESIAN_POINT('',(-49.2725985864494,56.7500015720725,-7.05892034907155));
#1873=CARTESIAN_POINT('',(-56.2725985864494,0.500001572072497,-7.05892034907154));
#1874=CARTESIAN_POINT('Origin',(-50.2725978004132,55.5000016575922,-76.0589207588535));
#1875=CARTESIAN_POINT('',(-44.2725978004132,55.5000016575922,-70.0589203490716));
#1876=CARTESIAN_POINT('',(-44.2725978004132,55.5000016575922,-76.0589207588535));
#1877=CARTESIAN_POINT('Origin',(-50.2725978004132,55.5000016575922,-70.0589203490716));
#1878=CARTESIAN_POINT('Origin',(-50.2725978004132,55.5000016575922,-76.0589207588535));
#1879=CARTESIAN_POINT('',(-44.2725978004132,55.5000016575922,27.9410796509285));
#1880=CARTESIAN_POINT('Origin',(-50.2725978004132,55.5000016575922,27.9410796509285));
#1881=CARTESIAN_POINT('',(-44.2725978004132,55.5000016575922,-76.0589207588535));
#1882=CARTESIAN_POINT('Origin',(-52.7725985864494,3.00000157207249,-35.0589203490716));
#1883=CARTESIAN_POINT('',(-49.2725985864494,0.500001572072497,-35.0589203490716));
#1884=CARTESIAN_POINT('',(-49.2725985864494,0.500001572072497,-35.0589203490716));
#1885=CARTESIAN_POINT('',(-49.2725985864494,56.7500015720725,-35.0589203490716));
#1886=CARTESIAN_POINT('Origin',(-49.2725985864495,110.500001572072,27.9410796509285));
#1887=CARTESIAN_POINT('',(-38.2725985864494,5.5000015720725,27.9410796509285));
#1888=CARTESIAN_POINT('Origin',(-52.7725985864495,108.000001572072,-7.05892034907154));
#1889=CARTESIAN_POINT('',(-56.2725985864494,109.250001572072,-7.05892034907154));
#1890=CARTESIAN_POINT('Origin',(-56.2725985864494,110.500001572072,27.9410796509285));
#1891=CARTESIAN_POINT('Origin',(-56.2725985864494,110.500001572072,-70.0589203490716));
#1892=CARTESIAN_POINT('',(-38.2725985864495,105.500001572072,-70.0589203490716));
#1893=CARTESIAN_POINT('Origin',(-49.2725985864495,110.500001572072,-70.0589203490716));
#1894=CARTESIAN_POINT('',(-49.2725985864494,0.500001572072497,-73.0589205539625));
#1895=CARTESIAN_POINT('Origin',(52.7274029856231,105.500001572073,-71.0589207588535));
#1896=CARTESIAN_POINT('',(48.7274029856231,105.500001572073,-71.0589207588535));
#1897=CARTESIAN_POINT('',(52.7274029856231,105.500001572073,-71.0589207588535));
#1898=CARTESIAN_POINT('',(48.7274029856231,105.500001572073,-71.0589207588535));
#1899=CARTESIAN_POINT('Origin',(38.7274029856231,5.50000157207251,-76.0589207588535));
#1900=CARTESIAN_POINT('',(38.7274029856231,8.50000157207251,-69.8089205539625));
#1901=CARTESIAN_POINT('',(38.7274029856231,5.50000157207251,-71.0589207588535));
#1902=CARTESIAN_POINT('Origin',(52.7274029856231,5.50000157207251,28.9410792411465));
#1903=CARTESIAN_POINT('',(48.7274029856231,5.50000157207251,28.9410792411465));
#1904=CARTESIAN_POINT('',(52.7274029856231,5.50000157207251,28.9410792411465));
#1905=CARTESIAN_POINT('',(48.7274029856231,5.50000157207251,-71.0589207588535));
#1906=CARTESIAN_POINT('',(48.7274029856231,5.50000157207251,28.9410792411465));
#1907=CARTESIAN_POINT('',(52.7274029856231,5.50000157207251,-71.0589207588535));
#1908=CARTESIAN_POINT('Origin',(52.7274029856231,5.50000157207251,-71.0589207588535));
#1909=CARTESIAN_POINT('',(48.7274029856231,5.50000157207251,-71.0589207588535));
#1910=CARTESIAN_POINT('Origin',(35.7274014135506,110.500001572072,-53.5589203490716));
#1911=CARTESIAN_POINT('',(35.7274014135506,110.500001572072,-63.5589203490716));
#1912=CARTESIAN_POINT('',(35.7274014135506,8.50000157207251,25.9410792411465));
#1913=CARTESIAN_POINT('',(35.7274029856231,105.500000827014,25.9410792411465));
#1914=CARTESIAN_POINT('',(35.7274014135506,8.50000157207251,-63.5589203490716));
#1915=CARTESIAN_POINT('',(35.7274014135506,0.500001572072533,-63.5589203490716));
#1916=CARTESIAN_POINT('',(35.7274014135506,110.500001572072,-63.5589203490716));
#1917=CARTESIAN_POINT('',(35.7274014135506,0.500001572072533,21.4410796509284));
#1918=CARTESIAN_POINT('',(35.7274014135506,0.500001572072533,-64.8089205539625));
#1919=CARTESIAN_POINT('',(35.7274014135506,110.500001572072,21.4410796509284));
#1920=CARTESIAN_POINT('',(35.7274014135506,110.500001572072,21.4410796509284));
#1921=CARTESIAN_POINT('Origin',(37.2274029856231,55.5000008270144,25.9410792411465));
#1922=CARTESIAN_POINT('',(37.9774021995868,8.50000157207251,25.9410792411465));
#1923=CARTESIAN_POINT('Origin',(52.7274029856231,105.500001572073,28.9410792411465));
#1924=CARTESIAN_POINT('',(48.7274029856231,105.500001572073,28.9410792411465));
#1925=CARTESIAN_POINT('Origin',(37.2274014135506,8.50000157207251,-21.0589203490716));
#1926=CARTESIAN_POINT('Origin',(-38.2725985864495,110.500001572072,-63.5589203490716));
#1927=CARTESIAN_POINT('',(-15.7725985864494,0.500001572072506,-63.5589203490716));
#1928=CARTESIAN_POINT('',(-15.7725985864495,110.500001572072,-63.5589203490716));
#1929=CARTESIAN_POINT('',(7.22740219958682,0.500001572072524,-63.5589203490716));
#1930=CARTESIAN_POINT('Origin',(26.7274014135506,110.500001572072,21.4410796509285));
#1931=CARTESIAN_POINT('',(-15.7725985864495,110.500001572072,21.4410796509285));
#1932=CARTESIAN_POINT('Origin',(-15.7725985864495,110.500001572072,-41.0589203490716));
#1933=CARTESIAN_POINT('',(-15.7725985864495,110.500001572072,-63.5589203490716));
#1934=CARTESIAN_POINT('',(-38.2725985864495,110.500001572072,-41.0589203490716));
#1935=CARTESIAN_POINT('Origin',(-38.2725985864495,110.500001572072,-63.5589203490716));
#1936=CARTESIAN_POINT('Origin',(-15.7725985864495,110.500001572072,-1.05892034907155));
#1937=CARTESIAN_POINT('',(-38.2725985864495,110.500001572072,-1.05892034907155));
#1938=CARTESIAN_POINT('Origin',(-15.7725985864495,110.500001572072,-1.05892034907155));
#1939=CARTESIAN_POINT('',(-15.7725985864494,0.500001572072506,21.4410796509285));
#1940=CARTESIAN_POINT('',(-15.7725985864495,110.500001572072,21.4410796509285));
#1941=CARTESIAN_POINT('',(-38.2725985864494,0.500001572072515,-1.05892034907155));
#1942=CARTESIAN_POINT('Origin',(-15.7725985864494,0.500001572072506,-1.05892034907155));
#1943=CARTESIAN_POINT('',(-38.2725985864495,110.500001572072,-1.05892034907155));
#1944=CARTESIAN_POINT('Origin',(26.7274014135506,110.500001572072,21.4410796509285));
#1945=CARTESIAN_POINT('',(39.7274021995868,0.500001572072533,21.4410796509285));
#1946=CARTESIAN_POINT('Origin',(-15.7725985864495,110.500001572072,-41.0589203490716));
#1947=CARTESIAN_POINT('',(-38.2725985864494,0.500001572072515,-41.0589203490716));
#1948=CARTESIAN_POINT('',(-38.2725985864495,110.500001572072,-41.0589203490716));
#1949=CARTESIAN_POINT('Origin',(-15.7725985864494,0.500001572072506,-41.0589203490716));
#1950=CARTESIAN_POINT('Origin',(-38.2725985864495,110.500001572072,-76.0589207588535));
#1951=CARTESIAN_POINT('Origin',(-38.2725985864495,110.500001572072,27.9410796509285));
#1952=CARTESIAN_POINT('Origin',(52.7274029856231,0.500001572072533,-76.0589207588535));
#1953=CARTESIAN_POINT('',(52.7274029856231,0.500001572072533,-76.0589207588535));
#1954=CARTESIAN_POINT('',(-38.2725985864494,0.500001572072515,-32.3089205539625));
#1955=CARTESIAN_POINT('Origin',(-38.2725985864495,110.500001572072,11.4410796509285));
#1956=CARTESIAN_POINT('Origin',(-38.2725985864495,110.500001572072,11.4410796509285));
#1957=CARTESIAN_POINT('Origin',(48.7274029856231,55.5000015720725,-21.0589207588535));
#1958=CARTESIAN_POINT('Origin',(52.7274029856231,55.5000015720725,-21.0589207588535));
#1959=UNCERTAINTY_MEASURE_WITH_UNIT(LENGTH_MEASURE(0.01),#1963,
'DISTANCE_ACCURACY_VALUE',
'Maximum model space distance between geometric entities at asserted c
onnectivities');
#1960=UNCERTAINTY_MEASURE_WITH_UNIT(LENGTH_MEASURE(0.01),#1963,
'DISTANCE_ACCURACY_VALUE',
'Maximum model space distance between geometric entities at asserted c
onnectivities');
#1961=(
GEOMETRIC_REPRESENTATION_CONTEXT(3)
GLOBAL_UNCERTAINTY_ASSIGNED_CONTEXT((#1959))
GLOBAL_UNIT_ASSIGNED_CONTEXT((#1963,#1965,#1966))
REPRESENTATION_CONTEXT('','3D')
);
#1962=(
GEOMETRIC_REPRESENTATION_CONTEXT(3)
GLOBAL_UNCERTAINTY_ASSIGNED_CONTEXT((#1960))
GLOBAL_UNIT_ASSIGNED_CONTEXT((#1963,#1965,#1966))
REPRESENTATION_CONTEXT('','3D')
);
#1963=(
LENGTH_UNIT()
NAMED_UNIT(*)
SI_UNIT(.MILLI.,.METRE.)
);
#1964=(
LENGTH_UNIT()
NAMED_UNIT(*)
SI_UNIT($,.METRE.)
);
#1965=(
NAMED_UNIT(*)
PLANE_ANGLE_UNIT()
SI_UNIT($,.RADIAN.)
);
#1966=(
NAMED_UNIT(*)
SI_UNIT($,.STERADIAN.)
SOLID_ANGLE_UNIT()
);
#1967=SHAPE_DEFINITION_REPRESENTATION(#1968,#1969);
#1968=PRODUCT_DEFINITION_SHAPE('',$,#1971);
#1969=SHAPE_REPRESENTATION('',(#1236),#1961);
#1970=PRODUCT_DEFINITION_CONTEXT('part definition',#1975,'design');
#1971=PRODUCT_DEFINITION('2026-09-08-22-36-42-588','Cansat_D1',#1972,#1970);
#1972=PRODUCT_DEFINITION_FORMATION('',$,#1977);
#1973=PRODUCT_RELATED_PRODUCT_CATEGORY('Cansat_D1','Cansat_D1',(#1977));
#1974=APPLICATION_PROTOCOL_DEFINITION('international standard',
'automotive_design',2009,#1975);
#1975=APPLICATION_CONTEXT(
'Core Data for Automotive Mechanical Design Process');
#1976=PRODUCT_CONTEXT('part definition',#1975,'mechanical');
#1977=PRODUCT('2026-09-08-22-36-42-588','Cansat_D1',$,(#1976));
#1978=PRESENTATION_STYLE_ASSIGNMENT((#1979));
#1979=SURFACE_STYLE_USAGE(.BOTH.,#1980);
#1980=SURFACE_SIDE_STYLE('',(#1981));
#1981=SURFACE_STYLE_FILL_AREA(#1982);
#1982=FILL_AREA_STYLE('ABS (White)',(#1983));
#1983=FILL_AREA_STYLE_COLOUR('ABS (White)',#1984);
#1984=COLOUR_RGB('ABS (White)',0.964705882352941,0.964705882352941,0.952941176470588);
ENDSEC;
END-ISO-10303-21;
